<svg width="301" height="356" viewBox="0 0 301 356" fill="none" xmlns="http://www.w3.org/2000/svg">
<rect width="301" height="356" rx="20" fill="white"/>
<rect x="0.5" y="0.5" width="300" height="355" rx="19.5" stroke="black" stroke-opacity="0.24"/>
<circle cx="109.5" cy="72.5" r="15.5" fill="white"/>
<path d="M106.808 79C106.496 79 106.25 78.916 106.07 78.748C105.902 78.568 105.818 78.328 105.818 78.028C105.818 77.716 105.902 77.482 106.07 77.326C106.25 77.17 106.496 77.092 106.808 77.092H108.824V68.254H109.94L107.294 69.856C107.066 69.988 106.85 70.042 106.646 70.018C106.454 69.982 106.286 69.898 106.142 69.766C106.01 69.622 105.92 69.454 105.872 69.262C105.824 69.07 105.836 68.878 105.908 68.686C105.992 68.482 106.148 68.314 106.376 68.182L108.86 66.688C109.1 66.544 109.34 66.424 109.58 66.328C109.82 66.22 110.042 66.166 110.246 66.166C110.498 66.166 110.708 66.238 110.876 66.382C111.044 66.514 111.128 66.736 111.128 67.048V77.092H112.964C113.276 77.092 113.516 77.17 113.684 77.326C113.864 77.482 113.954 77.716 113.954 78.028C113.954 78.34 113.864 78.58 113.684 78.748C113.516 78.916 113.276 79 112.964 79H106.808Z" fill="black"/>
<circle cx="150.5" cy="72.5" r="15.5" fill="white"/>
<path d="M147.394 79C147.01 79 146.728 78.916 146.548 78.748C146.38 78.568 146.296 78.31 146.296 77.974C146.296 77.77 146.35 77.572 146.458 77.38C146.566 77.188 146.722 76.984 146.926 76.768L150.544 72.916C151.096 72.34 151.492 71.818 151.732 71.35C151.972 70.87 152.092 70.39 152.092 69.91C152.092 69.31 151.9 68.854 151.516 68.542C151.144 68.23 150.598 68.074 149.878 68.074C149.47 68.074 149.062 68.134 148.654 68.254C148.246 68.362 147.832 68.554 147.412 68.83C147.196 68.974 146.992 69.034 146.8 69.01C146.62 68.986 146.458 68.908 146.314 68.776C146.182 68.644 146.092 68.482 146.044 68.29C145.996 68.098 146.002 67.906 146.062 67.714C146.134 67.51 146.278 67.336 146.494 67.192C147.01 66.844 147.586 66.58 148.222 66.4C148.87 66.22 149.518 66.13 150.166 66.13C151.078 66.13 151.846 66.268 152.47 66.544C153.094 66.82 153.568 67.222 153.892 67.75C154.216 68.278 154.378 68.92 154.378 69.676C154.378 70.18 154.294 70.672 154.126 71.152C153.97 71.632 153.724 72.118 153.388 72.61C153.064 73.102 152.638 73.624 152.11 74.176L148.726 77.704V77.092H154.018C154.342 77.092 154.588 77.17 154.756 77.326C154.924 77.482 155.008 77.716 155.008 78.028C155.008 78.34 154.924 78.58 154.756 78.748C154.588 78.916 154.342 79 154.018 79H147.394Z" fill="black"/>
<circle cx="191.5" cy="72.5" r="15.5" fill="white"/>
<path d="M191.148 79.18C190.5 79.18 189.828 79.096 189.132 78.928C188.436 78.76 187.83 78.508 187.314 78.172C187.074 78.016 186.912 77.836 186.828 77.632C186.744 77.428 186.72 77.236 186.756 77.056C186.804 76.864 186.894 76.702 187.026 76.57C187.17 76.438 187.344 76.36 187.548 76.336C187.764 76.312 187.998 76.366 188.25 76.498C188.742 76.762 189.216 76.954 189.672 77.074C190.128 77.182 190.596 77.236 191.076 77.236C191.604 77.236 192.048 77.164 192.408 77.02C192.768 76.876 193.038 76.66 193.218 76.372C193.41 76.084 193.506 75.736 193.506 75.328C193.506 74.728 193.302 74.284 192.894 73.996C192.498 73.696 191.916 73.546 191.148 73.546H189.996C189.66 73.546 189.402 73.462 189.222 73.294C189.054 73.126 188.97 72.892 188.97 72.592C188.97 72.292 189.054 72.058 189.222 71.89C189.402 71.722 189.66 71.638 189.996 71.638H190.932C191.388 71.638 191.778 71.566 192.102 71.422C192.426 71.266 192.678 71.05 192.858 70.774C193.038 70.498 193.128 70.162 193.128 69.766C193.128 69.214 192.942 68.794 192.57 68.506C192.21 68.218 191.682 68.074 190.986 68.074C190.542 68.074 190.122 68.128 189.726 68.236C189.342 68.332 188.916 68.518 188.448 68.794C188.232 68.926 188.022 68.98 187.818 68.956C187.626 68.932 187.464 68.854 187.332 68.722C187.2 68.59 187.11 68.434 187.062 68.254C187.014 68.062 187.026 67.87 187.098 67.678C187.17 67.474 187.32 67.3 187.548 67.156C188.064 66.82 188.634 66.568 189.258 66.4C189.882 66.22 190.524 66.13 191.184 66.13C192.06 66.13 192.81 66.268 193.434 66.544C194.058 66.808 194.532 67.192 194.856 67.696C195.192 68.188 195.36 68.788 195.36 69.496C195.36 70 195.264 70.462 195.072 70.882C194.88 71.29 194.61 71.638 194.262 71.926C193.914 72.214 193.494 72.418 193.002 72.538V72.322C193.866 72.466 194.538 72.826 195.018 73.402C195.498 73.966 195.738 74.674 195.738 75.526C195.738 76.27 195.552 76.918 195.18 77.47C194.808 78.022 194.28 78.448 193.596 78.748C192.912 79.036 192.096 79.18 191.148 79.18Z" fill="black"/>
<circle cx="232.5" cy="72.5" r="15.5" fill="white"/>
<path d="M234.434 79.144C234.074 79.144 233.792 79.048 233.588 78.856C233.384 78.652 233.282 78.364 233.282 77.992V76.588H228.836C228.464 76.588 228.164 76.51 227.936 76.354C227.72 76.198 227.612 75.952 227.612 75.616C227.612 75.424 227.66 75.214 227.756 74.986C227.864 74.758 228.05 74.458 228.314 74.086L233.246 66.94C233.414 66.688 233.6 66.496 233.804 66.364C234.008 66.232 234.242 66.166 234.506 66.166C234.818 66.166 235.076 66.262 235.28 66.454C235.484 66.634 235.586 66.922 235.586 67.318V74.68H236.468C236.816 74.68 237.074 74.764 237.242 74.932C237.422 75.088 237.512 75.322 237.512 75.634C237.512 75.946 237.422 76.186 237.242 76.354C237.074 76.51 236.816 76.588 236.468 76.588H235.586V77.992C235.586 78.364 235.484 78.652 235.28 78.856C235.076 79.048 234.794 79.144 234.434 79.144ZM233.282 74.68V69.064H233.804L229.556 75.292V74.68H233.282Z" fill="black"/>
<circle cx="273.5" cy="72.5" r="15.5" fill="white"/>
<path d="M273.508 79.18C272.872 79.18 272.224 79.096 271.564 78.928C270.904 78.76 270.298 78.502 269.746 78.154C269.518 78.01 269.362 77.842 269.278 77.65C269.206 77.446 269.188 77.248 269.224 77.056C269.272 76.852 269.362 76.684 269.494 76.552C269.638 76.408 269.806 76.324 269.998 76.3C270.202 76.276 270.424 76.33 270.664 76.462C271.108 76.714 271.558 76.906 272.014 77.038C272.47 77.17 272.956 77.236 273.472 77.236C273.976 77.236 274.408 77.146 274.768 76.966C275.128 76.786 275.404 76.534 275.596 76.21C275.788 75.886 275.884 75.508 275.884 75.076C275.884 74.404 275.68 73.864 275.272 73.456C274.864 73.036 274.306 72.826 273.598 72.826C273.214 72.826 272.842 72.892 272.482 73.024C272.122 73.144 271.768 73.36 271.42 73.672C271.312 73.768 271.174 73.864 271.006 73.96C270.838 74.044 270.658 74.086 270.466 74.086C270.166 74.086 269.938 74.008 269.782 73.852C269.626 73.696 269.548 73.48 269.548 73.204V67.318C269.548 66.994 269.632 66.748 269.8 66.58C269.98 66.4 270.232 66.31 270.556 66.31H276.478C276.802 66.31 277.048 66.394 277.216 66.562C277.396 66.718 277.486 66.952 277.486 67.264C277.486 67.564 277.396 67.798 277.216 67.966C277.048 68.134 276.802 68.218 276.478 68.218H271.798V72.25H271.204C271.516 71.83 271.93 71.506 272.446 71.278C272.962 71.05 273.526 70.936 274.138 70.936C274.942 70.936 275.638 71.11 276.226 71.458C276.826 71.794 277.288 72.268 277.612 72.88C277.948 73.48 278.116 74.182 278.116 74.986C278.116 75.814 277.93 76.546 277.558 77.182C277.186 77.806 276.652 78.298 275.956 78.658C275.272 79.006 274.456 79.18 273.508 79.18Z" fill="black"/>
<circle cx="68.5" cy="134.5" r="15.5" fill="white"/>
<path d="M66.096 141.144C65.82 141.144 65.592 141.078 65.412 140.946C65.232 140.814 65.124 140.64 65.088 140.424C65.052 140.196 65.106 139.944 65.25 139.668L70.686 129.444V130.236H64.854C64.53 130.236 64.278 130.152 64.098 129.984C63.93 129.816 63.846 129.582 63.846 129.282C63.846 128.97 63.93 128.73 64.098 128.562C64.278 128.394 64.53 128.31 64.854 128.31H71.82C72.144 128.31 72.408 128.394 72.612 128.562C72.816 128.73 72.918 128.97 72.918 129.282C72.918 129.546 72.882 129.78 72.81 129.984C72.738 130.176 72.642 130.386 72.522 130.614L67.41 140.388C67.278 140.652 67.104 140.844 66.888 140.964C66.684 141.084 66.42 141.144 66.096 141.144Z" fill="black"/>
<circle cx="27.5" cy="134.5" r="15.5" fill="white"/>
<path d="M27.868 141.18C26.824 141.18 25.93 140.934 25.186 140.442C24.454 139.938 23.896 139.218 23.512 138.282C23.128 137.346 22.936 136.212 22.936 134.88C22.936 133.8 23.056 132.846 23.296 132.018C23.548 131.178 23.908 130.47 24.376 129.894C24.844 129.318 25.414 128.88 26.086 128.58C26.77 128.28 27.538 128.13 28.39 128.13C28.918 128.13 29.452 128.214 29.992 128.382C30.544 128.538 31.06 128.778 31.54 129.102C31.732 129.222 31.858 129.378 31.918 129.57C31.978 129.762 31.984 129.954 31.936 130.146C31.9 130.326 31.816 130.488 31.684 130.632C31.564 130.764 31.408 130.848 31.216 130.884C31.024 130.908 30.814 130.854 30.586 130.722C30.178 130.482 29.794 130.314 29.434 130.218C29.074 130.122 28.714 130.074 28.354 130.074C27.658 130.074 27.07 130.236 26.59 130.56C26.11 130.884 25.744 131.37 25.492 132.018C25.252 132.666 25.132 133.476 25.132 134.448V135.798H24.916C25.012 135.186 25.21 134.664 25.51 134.232C25.822 133.788 26.218 133.452 26.698 133.224C27.178 132.984 27.712 132.864 28.3 132.864C29.032 132.864 29.68 133.038 30.244 133.386C30.808 133.734 31.252 134.214 31.576 134.826C31.9 135.438 32.062 136.14 32.062 136.932C32.062 137.748 31.882 138.48 31.522 139.128C31.174 139.764 30.682 140.268 30.046 140.64C29.422 141 28.696 141.18 27.868 141.18ZM27.742 139.344C28.174 139.344 28.552 139.248 28.876 139.056C29.212 138.864 29.47 138.594 29.65 138.246C29.83 137.886 29.92 137.478 29.92 137.022C29.92 136.554 29.83 136.146 29.65 135.798C29.47 135.45 29.212 135.18 28.876 134.988C28.552 134.784 28.174 134.682 27.742 134.682C27.31 134.682 26.932 134.784 26.608 134.988C26.284 135.18 26.026 135.45 25.834 135.798C25.654 136.146 25.564 136.554 25.564 137.022C25.564 137.478 25.654 137.886 25.834 138.246C26.026 138.594 26.284 138.864 26.608 139.056C26.932 139.248 27.31 139.344 27.742 139.344Z" fill="black"/>
<circle cx="109.5" cy="134.5" r="15.5" fill="white"/>
<path d="M109.4 141.18C108.416 141.18 107.57 141.042 106.862 140.766C106.166 140.478 105.626 140.064 105.242 139.524C104.87 138.984 104.684 138.336 104.684 137.58C104.684 136.98 104.804 136.452 105.044 135.996C105.296 135.528 105.638 135.15 106.07 134.862C106.502 134.574 106.994 134.394 107.546 134.322V134.7C106.778 134.532 106.16 134.166 105.692 133.602C105.236 133.026 105.008 132.342 105.008 131.55C105.008 130.83 105.188 130.218 105.548 129.714C105.908 129.198 106.418 128.808 107.078 128.544C107.738 128.268 108.512 128.13 109.4 128.13C110.3 128.13 111.08 128.268 111.74 128.544C112.4 128.808 112.91 129.198 113.27 129.714C113.63 130.218 113.81 130.83 113.81 131.55C113.81 132.078 113.702 132.564 113.486 133.008C113.282 133.452 112.988 133.818 112.604 134.106C112.232 134.394 111.794 134.586 111.29 134.682V134.322C112.13 134.442 112.808 134.796 113.324 135.384C113.852 135.96 114.116 136.692 114.116 137.58C114.116 138.336 113.924 138.984 113.54 139.524C113.168 140.064 112.628 140.478 111.92 140.766C111.224 141.042 110.384 141.18 109.4 141.18ZM109.4 139.38C110.252 139.38 110.894 139.218 111.326 138.894C111.758 138.558 111.974 138.066 111.974 137.418C111.974 136.77 111.758 136.284 111.326 135.96C110.894 135.636 110.252 135.474 109.4 135.474C108.56 135.474 107.918 135.636 107.474 135.96C107.042 136.284 106.826 136.77 106.826 137.418C106.826 138.066 107.042 138.558 107.474 138.894C107.918 139.218 108.56 139.38 109.4 139.38ZM109.4 133.674C109.88 133.674 110.288 133.602 110.624 133.458C110.96 133.302 111.218 133.08 111.398 132.792C111.578 132.504 111.668 132.168 111.668 131.784C111.668 131.208 111.464 130.758 111.056 130.434C110.66 130.098 110.108 129.93 109.4 129.93C108.692 129.93 108.14 130.098 107.744 130.434C107.348 130.758 107.15 131.208 107.15 131.784C107.15 132.372 107.348 132.834 107.744 133.17C108.14 133.506 108.692 133.674 109.4 133.674Z" fill="black"/>
<circle cx="150.5" cy="134.5" r="15.5" fill="white"/>
<path d="M149.41 141.18C148.894 141.18 148.36 141.102 147.808 140.946C147.256 140.778 146.74 140.532 146.26 140.208C146.068 140.088 145.942 139.932 145.882 139.74C145.822 139.548 145.81 139.362 145.846 139.182C145.894 138.99 145.978 138.828 146.098 138.696C146.23 138.552 146.392 138.468 146.584 138.444C146.776 138.408 146.986 138.456 147.214 138.588C147.622 138.828 148.006 138.996 148.366 139.092C148.726 139.188 149.086 139.236 149.446 139.236C150.142 139.236 150.73 139.074 151.21 138.75C151.69 138.426 152.05 137.94 152.29 137.292C152.542 136.632 152.668 135.822 152.668 134.862V133.512H152.884C152.8 134.112 152.602 134.634 152.29 135.078C151.978 135.522 151.582 135.864 151.102 136.104C150.622 136.332 150.088 136.446 149.5 136.446C148.78 136.446 148.132 136.272 147.556 135.924C146.992 135.576 146.548 135.096 146.224 134.484C145.9 133.86 145.738 133.158 145.738 132.378C145.738 131.55 145.912 130.818 146.26 130.182C146.62 129.546 147.118 129.048 147.754 128.688C148.39 128.316 149.116 128.13 149.932 128.13C150.988 128.13 151.882 128.376 152.614 128.868C153.346 129.36 153.904 130.08 154.288 131.028C154.672 131.964 154.864 133.098 154.864 134.43C154.864 135.51 154.738 136.47 154.486 137.31C154.246 138.138 153.892 138.84 153.424 139.416C152.956 139.992 152.38 140.43 151.696 140.73C151.024 141.03 150.262 141.18 149.41 141.18ZM150.076 134.61C150.508 134.61 150.886 134.514 151.21 134.322C151.546 134.118 151.804 133.842 151.984 133.494C152.164 133.134 152.254 132.726 152.254 132.27C152.254 131.802 152.164 131.394 151.984 131.046C151.804 130.698 151.546 130.428 151.21 130.236C150.886 130.044 150.508 129.948 150.076 129.948C149.644 129.948 149.266 130.044 148.942 130.236C148.618 130.428 148.36 130.698 148.168 131.046C147.988 131.394 147.898 131.802 147.898 132.27C147.898 132.726 147.988 133.134 148.168 133.494C148.36 133.842 148.618 134.118 148.942 134.322C149.266 134.514 149.644 134.61 150.076 134.61Z" fill="black"/>
<circle cx="191.5" cy="134.5" r="15.5" fill="white"/>
<path d="M183.808 141C183.496 141 183.25 140.916 183.07 140.748C182.902 140.568 182.818 140.328 182.818 140.028C182.818 139.716 182.902 139.482 183.07 139.326C183.25 139.17 183.496 139.092 183.808 139.092H185.824V130.254H186.94L184.294 131.856C184.066 131.988 183.85 132.042 183.646 132.018C183.454 131.982 183.286 131.898 183.142 131.766C183.01 131.622 182.92 131.454 182.872 131.262C182.824 131.07 182.836 130.878 182.908 130.686C182.992 130.482 183.148 130.314 183.376 130.182L185.86 128.688C186.1 128.544 186.34 128.424 186.58 128.328C186.82 128.22 187.042 128.166 187.246 128.166C187.498 128.166 187.708 128.238 187.876 128.382C188.044 128.514 188.128 128.736 188.128 129.048V139.092H189.964C190.276 139.092 190.516 139.17 190.684 139.326C190.864 139.482 190.954 139.716 190.954 140.028C190.954 140.34 190.864 140.58 190.684 140.748C190.516 140.916 190.276 141 189.964 141H183.808ZM197.193 141.18C195.693 141.18 194.547 140.616 193.755 139.488C192.963 138.348 192.567 136.728 192.567 134.628C192.567 133.212 192.741 132.024 193.089 131.064C193.449 130.092 193.971 129.36 194.655 128.868C195.351 128.376 196.197 128.13 197.193 128.13C198.705 128.13 199.851 128.682 200.631 129.786C201.423 130.89 201.819 132.498 201.819 134.61C201.819 136.014 201.639 137.208 201.279 138.192C200.931 139.164 200.415 139.908 199.731 140.424C199.047 140.928 198.201 141.18 197.193 141.18ZM197.193 139.29C198.009 139.29 198.609 138.912 198.993 138.156C199.389 137.4 199.587 136.218 199.587 134.61C199.587 133.002 199.389 131.838 198.993 131.118C198.609 130.386 198.009 130.02 197.193 130.02C196.389 130.02 195.789 130.386 195.393 131.118C194.997 131.838 194.799 133.002 194.799 134.61C194.799 136.218 194.997 137.4 195.393 138.156C195.789 138.912 196.389 139.29 197.193 139.29Z" fill="black"/>
<circle cx="233.5" cy="134.5" r="15.5" fill="white"/>
<path d="M225.808 141C225.496 141 225.25 140.916 225.07 140.748C224.902 140.568 224.818 140.328 224.818 140.028C224.818 139.716 224.902 139.482 225.07 139.326C225.25 139.17 225.496 139.092 225.808 139.092H227.824V130.254H228.94L226.294 131.856C226.066 131.988 225.85 132.042 225.646 132.018C225.454 131.982 225.286 131.898 225.142 131.766C225.01 131.622 224.92 131.454 224.872 131.262C224.824 131.07 224.836 130.878 224.908 130.686C224.992 130.482 225.148 130.314 225.376 130.182L227.86 128.688C228.1 128.544 228.34 128.424 228.58 128.328C228.82 128.22 229.042 128.166 229.246 128.166C229.498 128.166 229.708 128.238 229.876 128.382C230.044 128.514 230.128 128.736 230.128 129.048V139.092H231.964C232.276 139.092 232.516 139.17 232.684 139.326C232.864 139.482 232.954 139.716 232.954 140.028C232.954 140.34 232.864 140.58 232.684 140.748C232.516 140.916 232.276 141 231.964 141H225.808ZM236.601 141C236.289 141 236.043 140.916 235.863 140.748C235.695 140.568 235.611 140.328 235.611 140.028C235.611 139.716 235.695 139.482 235.863 139.326C236.043 139.17 236.289 139.092 236.601 139.092H238.617V130.254H239.733L237.087 131.856C236.859 131.988 236.643 132.042 236.439 132.018C236.247 131.982 236.079 131.898 235.935 131.766C235.803 131.622 235.713 131.454 235.665 131.262C235.617 131.07 235.629 130.878 235.701 130.686C235.785 130.482 235.941 130.314 236.169 130.182L238.653 128.688C238.893 128.544 239.133 128.424 239.373 128.328C239.613 128.22 239.835 128.166 240.039 128.166C240.291 128.166 240.501 128.238 240.669 128.382C240.837 128.514 240.921 128.736 240.921 129.048V139.092H242.757C243.069 139.092 243.309 139.17 243.477 139.326C243.657 139.482 243.747 139.716 243.747 140.028C243.747 140.34 243.657 140.58 243.477 140.748C243.309 140.916 243.069 141 242.757 141H236.601Z" fill="black"/>
<circle cx="273.5" cy="134.5" r="15.5" fill="white"/>
<path d="M265.808 141C265.496 141 265.25 140.916 265.07 140.748C264.902 140.568 264.818 140.328 264.818 140.028C264.818 139.716 264.902 139.482 265.07 139.326C265.25 139.17 265.496 139.092 265.808 139.092H267.824V130.254H268.94L266.294 131.856C266.066 131.988 265.85 132.042 265.646 132.018C265.454 131.982 265.286 131.898 265.142 131.766C265.01 131.622 264.92 131.454 264.872 131.262C264.824 131.07 264.836 130.878 264.908 130.686C264.992 130.482 265.148 130.314 265.376 130.182L267.86 128.688C268.1 128.544 268.34 128.424 268.58 128.328C268.82 128.22 269.042 128.166 269.246 128.166C269.498 128.166 269.708 128.238 269.876 128.382C270.044 128.514 270.128 128.736 270.128 129.048V139.092H271.964C272.276 139.092 272.516 139.17 272.684 139.326C272.864 139.482 272.954 139.716 272.954 140.028C272.954 140.34 272.864 140.58 272.684 140.748C272.516 140.916 272.276 141 271.964 141H265.808ZM276.187 141C275.803 141 275.521 140.916 275.341 140.748C275.173 140.568 275.089 140.31 275.089 139.974C275.089 139.77 275.143 139.572 275.251 139.38C275.359 139.188 275.515 138.984 275.719 138.768L279.337 134.916C279.889 134.34 280.285 133.818 280.525 133.35C280.765 132.87 280.885 132.39 280.885 131.91C280.885 131.31 280.693 130.854 280.309 130.542C279.937 130.23 279.391 130.074 278.671 130.074C278.263 130.074 277.855 130.134 277.447 130.254C277.039 130.362 276.625 130.554 276.205 130.83C275.989 130.974 275.785 131.034 275.593 131.01C275.413 130.986 275.251 130.908 275.107 130.776C274.975 130.644 274.885 130.482 274.837 130.29C274.789 130.098 274.795 129.906 274.855 129.714C274.927 129.51 275.071 129.336 275.287 129.192C275.803 128.844 276.379 128.58 277.015 128.4C277.663 128.22 278.311 128.13 278.959 128.13C279.871 128.13 280.639 128.268 281.263 128.544C281.887 128.82 282.361 129.222 282.685 129.75C283.009 130.278 283.171 130.92 283.171 131.676C283.171 132.18 283.087 132.672 282.919 133.152C282.763 133.632 282.517 134.118 282.181 134.61C281.857 135.102 281.431 135.624 280.903 136.176L277.519 139.704V139.092H282.811C283.135 139.092 283.381 139.17 283.549 139.326C283.717 139.482 283.801 139.716 283.801 140.028C283.801 140.34 283.717 140.58 283.549 140.748C283.381 140.916 283.135 141 282.811 141H276.187Z" fill="black"/>
<circle cx="191.5" cy="196.5" r="15.5" fill="white"/>
<path d="M183.808 203C183.496 203 183.25 202.916 183.07 202.748C182.902 202.568 182.818 202.328 182.818 202.028C182.818 201.716 182.902 201.482 183.07 201.326C183.25 201.17 183.496 201.092 183.808 201.092H185.824V192.254H186.94L184.294 193.856C184.066 193.988 183.85 194.042 183.646 194.018C183.454 193.982 183.286 193.898 183.142 193.766C183.01 193.622 182.92 193.454 182.872 193.262C182.824 193.07 182.836 192.878 182.908 192.686C182.992 192.482 183.148 192.314 183.376 192.182L185.86 190.688C186.1 190.544 186.34 190.424 186.58 190.328C186.82 190.22 187.042 190.166 187.246 190.166C187.498 190.166 187.708 190.238 187.876 190.382C188.044 190.514 188.128 190.736 188.128 191.048V201.092H189.964C190.276 201.092 190.516 201.17 190.684 201.326C190.864 201.482 190.954 201.716 190.954 202.028C190.954 202.34 190.864 202.58 190.684 202.748C190.516 202.916 190.276 203 189.964 203H183.808ZM194.889 203.144C194.613 203.144 194.385 203.078 194.205 202.946C194.025 202.814 193.917 202.64 193.881 202.424C193.845 202.196 193.899 201.944 194.043 201.668L199.479 191.444V192.236H193.647C193.323 192.236 193.071 192.152 192.891 191.984C192.723 191.816 192.639 191.582 192.639 191.282C192.639 190.97 192.723 190.73 192.891 190.562C193.071 190.394 193.323 190.31 193.647 190.31H200.613C200.937 190.31 201.201 190.394 201.405 190.562C201.609 190.73 201.711 190.97 201.711 191.282C201.711 191.546 201.675 191.78 201.603 191.984C201.531 192.176 201.435 192.386 201.315 192.614L196.203 202.388C196.071 202.652 195.897 202.844 195.681 202.964C195.477 203.084 195.213 203.144 194.889 203.144Z" fill="black"/>
<circle cx="150.5" cy="196.5" r="15.5" fill="#F65D46"/>
<path d="M142.808 203C142.496 203 142.25 202.916 142.07 202.748C141.902 202.568 141.818 202.328 141.818 202.028C141.818 201.716 141.902 201.482 142.07 201.326C142.25 201.17 142.496 201.092 142.808 201.092H144.824V192.254H145.94L143.294 193.856C143.066 193.988 142.85 194.042 142.646 194.018C142.454 193.982 142.286 193.898 142.142 193.766C142.01 193.622 141.92 193.454 141.872 193.262C141.824 193.07 141.836 192.878 141.908 192.686C141.992 192.482 142.148 192.314 142.376 192.182L144.86 190.688C145.1 190.544 145.34 190.424 145.58 190.328C145.82 190.22 146.042 190.166 146.246 190.166C146.498 190.166 146.708 190.238 146.876 190.382C147.044 190.514 147.128 190.736 147.128 191.048V201.092H148.964C149.276 201.092 149.516 201.17 149.684 201.326C149.864 201.482 149.954 201.716 149.954 202.028C149.954 202.34 149.864 202.58 149.684 202.748C149.516 202.916 149.276 203 148.964 203H142.808ZM156.661 203.18C155.617 203.18 154.723 202.934 153.979 202.442C153.247 201.938 152.689 201.218 152.305 200.282C151.921 199.346 151.729 198.212 151.729 196.88C151.729 195.8 151.849 194.846 152.089 194.018C152.341 193.178 152.701 192.47 153.169 191.894C153.637 191.318 154.207 190.88 154.879 190.58C155.563 190.28 156.331 190.13 157.183 190.13C157.711 190.13 158.245 190.214 158.785 190.382C159.337 190.538 159.853 190.778 160.333 191.102C160.525 191.222 160.651 191.378 160.711 191.57C160.771 191.762 160.777 191.954 160.729 192.146C160.693 192.326 160.609 192.488 160.477 192.632C160.357 192.764 160.201 192.848 160.009 192.884C159.817 192.908 159.607 192.854 159.379 192.722C158.971 192.482 158.587 192.314 158.227 192.218C157.867 192.122 157.507 192.074 157.147 192.074C156.451 192.074 155.863 192.236 155.383 192.56C154.903 192.884 154.537 193.37 154.285 194.018C154.045 194.666 153.925 195.476 153.925 196.448V197.798H153.709C153.805 197.186 154.003 196.664 154.303 196.232C154.615 195.788 155.011 195.452 155.491 195.224C155.971 194.984 156.505 194.864 157.093 194.864C157.825 194.864 158.473 195.038 159.037 195.386C159.601 195.734 160.045 196.214 160.369 196.826C160.693 197.438 160.855 198.14 160.855 198.932C160.855 199.748 160.675 200.48 160.315 201.128C159.967 201.764 159.475 202.268 158.839 202.64C158.215 203 157.489 203.18 156.661 203.18ZM156.535 201.344C156.967 201.344 157.345 201.248 157.669 201.056C158.005 200.864 158.263 200.594 158.443 200.246C158.623 199.886 158.713 199.478 158.713 199.022C158.713 198.554 158.623 198.146 158.443 197.798C158.263 197.45 158.005 197.18 157.669 196.988C157.345 196.784 156.967 196.682 156.535 196.682C156.103 196.682 155.725 196.784 155.401 196.988C155.077 197.18 154.819 197.45 154.627 197.798C154.447 198.146 154.357 198.554 154.357 199.022C154.357 199.478 154.447 199.886 154.627 200.246C154.819 200.594 155.077 200.864 155.401 201.056C155.725 201.248 156.103 201.344 156.535 201.344Z" fill="black"/>
<circle cx="233.5" cy="196.5" r="15.5" fill="white"/>
<path d="M225.808 203C225.496 203 225.25 202.916 225.07 202.748C224.902 202.568 224.818 202.328 224.818 202.028C224.818 201.716 224.902 201.482 225.07 201.326C225.25 201.17 225.496 201.092 225.808 201.092H227.824V192.254H228.94L226.294 193.856C226.066 193.988 225.85 194.042 225.646 194.018C225.454 193.982 225.286 193.898 225.142 193.766C225.01 193.622 224.92 193.454 224.872 193.262C224.824 193.07 224.836 192.878 224.908 192.686C224.992 192.482 225.148 192.314 225.376 192.182L227.86 190.688C228.1 190.544 228.34 190.424 228.58 190.328C228.82 190.22 229.042 190.166 229.246 190.166C229.498 190.166 229.708 190.238 229.876 190.382C230.044 190.514 230.128 190.736 230.128 191.048V201.092H231.964C232.276 201.092 232.516 201.17 232.684 201.326C232.864 201.482 232.954 201.716 232.954 202.028C232.954 202.34 232.864 202.58 232.684 202.748C232.516 202.916 232.276 203 231.964 203H225.808ZM239.193 203.18C238.209 203.18 237.363 203.042 236.655 202.766C235.959 202.478 235.419 202.064 235.035 201.524C234.663 200.984 234.477 200.336 234.477 199.58C234.477 198.98 234.597 198.452 234.837 197.996C235.089 197.528 235.431 197.15 235.863 196.862C236.295 196.574 236.787 196.394 237.339 196.322V196.7C236.571 196.532 235.953 196.166 235.485 195.602C235.029 195.026 234.801 194.342 234.801 193.55C234.801 192.83 234.981 192.218 235.341 191.714C235.701 191.198 236.211 190.808 236.871 190.544C237.531 190.268 238.305 190.13 239.193 190.13C240.093 190.13 240.873 190.268 241.533 190.544C242.193 190.808 242.703 191.198 243.063 191.714C243.423 192.218 243.603 192.83 243.603 193.55C243.603 194.078 243.495 194.564 243.279 195.008C243.075 195.452 242.781 195.818 242.397 196.106C242.025 196.394 241.587 196.586 241.083 196.682V196.322C241.923 196.442 242.601 196.796 243.117 197.384C243.645 197.96 243.909 198.692 243.909 199.58C243.909 200.336 243.717 200.984 243.333 201.524C242.961 202.064 242.421 202.478 241.713 202.766C241.017 203.042 240.177 203.18 239.193 203.18ZM239.193 201.38C240.045 201.38 240.687 201.218 241.119 200.894C241.551 200.558 241.767 200.066 241.767 199.418C241.767 198.77 241.551 198.284 241.119 197.96C240.687 197.636 240.045 197.474 239.193 197.474C238.353 197.474 237.711 197.636 237.267 197.96C236.835 198.284 236.619 198.77 236.619 199.418C236.619 200.066 236.835 200.558 237.267 200.894C237.711 201.218 238.353 201.38 239.193 201.38ZM239.193 195.674C239.673 195.674 240.081 195.602 240.417 195.458C240.753 195.302 241.011 195.08 241.191 194.792C241.371 194.504 241.461 194.168 241.461 193.784C241.461 193.208 241.257 192.758 240.849 192.434C240.453 192.098 239.901 191.93 239.193 191.93C238.485 191.93 237.933 192.098 237.537 192.434C237.141 192.758 236.943 193.208 236.943 193.784C236.943 194.372 237.141 194.834 237.537 195.17C237.933 195.506 238.485 195.674 239.193 195.674Z" fill="black"/>
<circle cx="273.5" cy="196.5" r="15.5" fill="white"/>
<path d="M265.808 203C265.496 203 265.25 202.916 265.07 202.748C264.902 202.568 264.818 202.328 264.818 202.028C264.818 201.716 264.902 201.482 265.07 201.326C265.25 201.17 265.496 201.092 265.808 201.092H267.824V192.254H268.94L266.294 193.856C266.066 193.988 265.85 194.042 265.646 194.018C265.454 193.982 265.286 193.898 265.142 193.766C265.01 193.622 264.92 193.454 264.872 193.262C264.824 193.07 264.836 192.878 264.908 192.686C264.992 192.482 265.148 192.314 265.376 192.182L267.86 190.688C268.1 190.544 268.34 190.424 268.58 190.328C268.82 190.22 269.042 190.166 269.246 190.166C269.498 190.166 269.708 190.238 269.876 190.382C270.044 190.514 270.128 190.736 270.128 191.048V201.092H271.964C272.276 201.092 272.516 201.17 272.684 201.326C272.864 201.482 272.954 201.716 272.954 202.028C272.954 202.34 272.864 202.58 272.684 202.748C272.516 202.916 272.276 203 271.964 203H265.808ZM278.203 203.18C277.687 203.18 277.153 203.102 276.601 202.946C276.049 202.778 275.533 202.532 275.053 202.208C274.861 202.088 274.735 201.932 274.675 201.74C274.615 201.548 274.603 201.362 274.639 201.182C274.687 200.99 274.771 200.828 274.891 200.696C275.023 200.552 275.185 200.468 275.377 200.444C275.569 200.408 275.779 200.456 276.007 200.588C276.415 200.828 276.799 200.996 277.159 201.092C277.519 201.188 277.879 201.236 278.239 201.236C278.935 201.236 279.523 201.074 280.003 200.75C280.483 200.426 280.843 199.94 281.083 199.292C281.335 198.632 281.461 197.822 281.461 196.862V195.512H281.677C281.593 196.112 281.395 196.634 281.083 197.078C280.771 197.522 280.375 197.864 279.895 198.104C279.415 198.332 278.881 198.446 278.293 198.446C277.573 198.446 276.925 198.272 276.349 197.924C275.785 197.576 275.341 197.096 275.017 196.484C274.693 195.86 274.531 195.158 274.531 194.378C274.531 193.55 274.705 192.818 275.053 192.182C275.413 191.546 275.911 191.048 276.547 190.688C277.183 190.316 277.909 190.13 278.725 190.13C279.781 190.13 280.675 190.376 281.407 190.868C282.139 191.36 282.697 192.08 283.081 193.028C283.465 193.964 283.657 195.098 283.657 196.43C283.657 197.51 283.531 198.47 283.279 199.31C283.039 200.138 282.685 200.84 282.217 201.416C281.749 201.992 281.173 202.43 280.489 202.73C279.817 203.03 279.055 203.18 278.203 203.18ZM278.869 196.61C279.301 196.61 279.679 196.514 280.003 196.322C280.339 196.118 280.597 195.842 280.777 195.494C280.957 195.134 281.047 194.726 281.047 194.27C281.047 193.802 280.957 193.394 280.777 193.046C280.597 192.698 280.339 192.428 280.003 192.236C279.679 192.044 279.301 191.948 278.869 191.948C278.437 191.948 278.059 192.044 277.735 192.236C277.411 192.428 277.153 192.698 276.961 193.046C276.781 193.394 276.691 193.802 276.691 194.27C276.691 194.726 276.781 195.134 276.961 195.494C277.153 195.842 277.411 196.118 277.735 196.322C278.059 196.514 278.437 196.61 278.869 196.61Z" fill="black"/>
<circle cx="191.5" cy="258.5" r="15.5" fill="#F65D46"/>
<path d="M183.394 265C183.01 265 182.728 264.916 182.548 264.748C182.38 264.568 182.296 264.31 182.296 263.974C182.296 263.77 182.35 263.572 182.458 263.38C182.566 263.188 182.722 262.984 182.926 262.768L186.544 258.916C187.096 258.34 187.492 257.818 187.732 257.35C187.972 256.87 188.092 256.39 188.092 255.91C188.092 255.31 187.9 254.854 187.516 254.542C187.144 254.23 186.598 254.074 185.878 254.074C185.47 254.074 185.062 254.134 184.654 254.254C184.246 254.362 183.832 254.554 183.412 254.83C183.196 254.974 182.992 255.034 182.8 255.01C182.62 254.986 182.458 254.908 182.314 254.776C182.182 254.644 182.092 254.482 182.044 254.29C181.996 254.098 182.002 253.906 182.062 253.714C182.134 253.51 182.278 253.336 182.494 253.192C183.01 252.844 183.586 252.58 184.222 252.4C184.87 252.22 185.518 252.13 186.166 252.13C187.078 252.13 187.846 252.268 188.47 252.544C189.094 252.82 189.568 253.222 189.892 253.75C190.216 254.278 190.378 254.92 190.378 255.676C190.378 256.18 190.294 256.672 190.126 257.152C189.97 257.632 189.724 258.118 189.388 258.61C189.064 259.102 188.638 259.624 188.11 260.176L184.726 263.704V263.092H190.018C190.342 263.092 190.588 263.17 190.756 263.326C190.924 263.482 191.008 263.716 191.008 264.028C191.008 264.34 190.924 264.58 190.756 264.748C190.588 264.916 190.342 265 190.018 265H183.394ZM199.227 265.144C198.867 265.144 198.585 265.048 198.381 264.856C198.177 264.652 198.075 264.364 198.075 263.992V262.588H193.629C193.257 262.588 192.957 262.51 192.729 262.354C192.513 262.198 192.405 261.952 192.405 261.616C192.405 261.424 192.453 261.214 192.549 260.986C192.657 260.758 192.843 260.458 193.107 260.086L198.039 252.94C198.207 252.688 198.393 252.496 198.597 252.364C198.801 252.232 199.035 252.166 199.299 252.166C199.611 252.166 199.869 252.262 200.073 252.454C200.277 252.634 200.379 252.922 200.379 253.318V260.68H201.261C201.609 260.68 201.867 260.764 202.035 260.932C202.215 261.088 202.305 261.322 202.305 261.634C202.305 261.946 202.215 262.186 202.035 262.354C201.867 262.51 201.609 262.588 201.261 262.588H200.379V263.992C200.379 264.364 200.277 264.652 200.073 264.856C199.869 265.048 199.587 265.144 199.227 265.144ZM198.075 260.68V255.064H198.597L194.349 261.292V260.68H198.075Z" fill="black"/>
<circle cx="191.5" cy="320.5" r="15.5" fill="white"/>
<path d="M186.148 327.18C185.5 327.18 184.828 327.096 184.132 326.928C183.436 326.76 182.83 326.508 182.314 326.172C182.074 326.016 181.912 325.836 181.828 325.632C181.744 325.428 181.72 325.236 181.756 325.056C181.804 324.864 181.894 324.702 182.026 324.57C182.17 324.438 182.344 324.36 182.548 324.336C182.764 324.312 182.998 324.366 183.25 324.498C183.742 324.762 184.216 324.954 184.672 325.074C185.128 325.182 185.596 325.236 186.076 325.236C186.604 325.236 187.048 325.164 187.408 325.02C187.768 324.876 188.038 324.66 188.218 324.372C188.41 324.084 188.506 323.736 188.506 323.328C188.506 322.728 188.302 322.284 187.894 321.996C187.498 321.696 186.916 321.546 186.148 321.546H184.996C184.66 321.546 184.402 321.462 184.222 321.294C184.054 321.126 183.97 320.892 183.97 320.592C183.97 320.292 184.054 320.058 184.222 319.89C184.402 319.722 184.66 319.638 184.996 319.638H185.932C186.388 319.638 186.778 319.566 187.102 319.422C187.426 319.266 187.678 319.05 187.858 318.774C188.038 318.498 188.128 318.162 188.128 317.766C188.128 317.214 187.942 316.794 187.57 316.506C187.21 316.218 186.682 316.074 185.986 316.074C185.542 316.074 185.122 316.128 184.726 316.236C184.342 316.332 183.916 316.518 183.448 316.794C183.232 316.926 183.022 316.98 182.818 316.956C182.626 316.932 182.464 316.854 182.332 316.722C182.2 316.59 182.11 316.434 182.062 316.254C182.014 316.062 182.026 315.87 182.098 315.678C182.17 315.474 182.32 315.3 182.548 315.156C183.064 314.82 183.634 314.568 184.258 314.4C184.882 314.22 185.524 314.13 186.184 314.13C187.06 314.13 187.81 314.268 188.434 314.544C189.058 314.808 189.532 315.192 189.856 315.696C190.192 316.188 190.36 316.788 190.36 317.496C190.36 318 190.264 318.462 190.072 318.882C189.88 319.29 189.61 319.638 189.262 319.926C188.914 320.214 188.494 320.418 188.002 320.538V320.322C188.866 320.466 189.538 320.826 190.018 321.402C190.498 321.966 190.738 322.674 190.738 323.526C190.738 324.27 190.552 324.918 190.18 325.47C189.808 326.022 189.28 326.448 188.596 326.748C187.912 327.036 187.096 327.18 186.148 327.18ZM194.601 327C194.289 327 194.043 326.916 193.863 326.748C193.695 326.568 193.611 326.328 193.611 326.028C193.611 325.716 193.695 325.482 193.863 325.326C194.043 325.17 194.289 325.092 194.601 325.092H196.617V316.254H197.733L195.087 317.856C194.859 317.988 194.643 318.042 194.439 318.018C194.247 317.982 194.079 317.898 193.935 317.766C193.803 317.622 193.713 317.454 193.665 317.262C193.617 317.07 193.629 316.878 193.701 316.686C193.785 316.482 193.941 316.314 194.169 316.182L196.653 314.688C196.893 314.544 197.133 314.424 197.373 314.328C197.613 314.22 197.835 314.166 198.039 314.166C198.291 314.166 198.501 314.238 198.669 314.382C198.837 314.514 198.921 314.736 198.921 315.048V325.092H200.757C201.069 325.092 201.309 325.17 201.477 325.326C201.657 325.482 201.747 325.716 201.747 326.028C201.747 326.34 201.657 326.58 201.477 326.748C201.309 326.916 201.069 327 200.757 327H194.601Z" fill="black"/>
<circle cx="233.5" cy="258.5" r="15.5" fill="white"/>
<path d="M225.394 265C225.01 265 224.728 264.916 224.548 264.748C224.38 264.568 224.296 264.31 224.296 263.974C224.296 263.77 224.35 263.572 224.458 263.38C224.566 263.188 224.722 262.984 224.926 262.768L228.544 258.916C229.096 258.34 229.492 257.818 229.732 257.35C229.972 256.87 230.092 256.39 230.092 255.91C230.092 255.31 229.9 254.854 229.516 254.542C229.144 254.23 228.598 254.074 227.878 254.074C227.47 254.074 227.062 254.134 226.654 254.254C226.246 254.362 225.832 254.554 225.412 254.83C225.196 254.974 224.992 255.034 224.8 255.01C224.62 254.986 224.458 254.908 224.314 254.776C224.182 254.644 224.092 254.482 224.044 254.29C223.996 254.098 224.002 253.906 224.062 253.714C224.134 253.51 224.278 253.336 224.494 253.192C225.01 252.844 225.586 252.58 226.222 252.4C226.87 252.22 227.518 252.13 228.166 252.13C229.078 252.13 229.846 252.268 230.47 252.544C231.094 252.82 231.568 253.222 231.892 253.75C232.216 254.278 232.378 254.92 232.378 255.676C232.378 256.18 232.294 256.672 232.126 257.152C231.97 257.632 231.724 258.118 231.388 258.61C231.064 259.102 230.638 259.624 230.11 260.176L226.726 263.704V263.092H232.018C232.342 263.092 232.588 263.17 232.756 263.326C232.924 263.482 233.008 263.716 233.008 264.028C233.008 264.34 232.924 264.58 232.756 264.748C232.588 264.916 232.342 265 232.018 265H225.394ZM239.301 265.18C238.665 265.18 238.017 265.096 237.357 264.928C236.697 264.76 236.091 264.502 235.539 264.154C235.311 264.01 235.155 263.842 235.071 263.65C234.999 263.446 234.981 263.248 235.017 263.056C235.065 262.852 235.155 262.684 235.287 262.552C235.431 262.408 235.599 262.324 235.791 262.3C235.995 262.276 236.217 262.33 236.457 262.462C236.901 262.714 237.351 262.906 237.807 263.038C238.263 263.17 238.749 263.236 239.265 263.236C239.769 263.236 240.201 263.146 240.561 262.966C240.921 262.786 241.197 262.534 241.389 262.21C241.581 261.886 241.677 261.508 241.677 261.076C241.677 260.404 241.473 259.864 241.065 259.456C240.657 259.036 240.099 258.826 239.391 258.826C239.007 258.826 238.635 258.892 238.275 259.024C237.915 259.144 237.561 259.36 237.213 259.672C237.105 259.768 236.967 259.864 236.799 259.96C236.631 260.044 236.451 260.086 236.259 260.086C235.959 260.086 235.731 260.008 235.575 259.852C235.419 259.696 235.341 259.48 235.341 259.204V253.318C235.341 252.994 235.425 252.748 235.593 252.58C235.773 252.4 236.025 252.31 236.349 252.31H242.271C242.595 252.31 242.841 252.394 243.009 252.562C243.189 252.718 243.279 252.952 243.279 253.264C243.279 253.564 243.189 253.798 243.009 253.966C242.841 254.134 242.595 254.218 242.271 254.218H237.591V258.25H236.997C237.309 257.83 237.723 257.506 238.239 257.278C238.755 257.05 239.319 256.936 239.931 256.936C240.735 256.936 241.431 257.11 242.019 257.458C242.619 257.794 243.081 258.268 243.405 258.88C243.741 259.48 243.909 260.182 243.909 260.986C243.909 261.814 243.723 262.546 243.351 263.182C242.979 263.806 242.445 264.298 241.749 264.658C241.065 265.006 240.249 265.18 239.301 265.18Z" fill="black"/>
<circle cx="273.5" cy="258.5" r="15.5" fill="white"/>
<path d="M265.394 265C265.01 265 264.728 264.916 264.548 264.748C264.38 264.568 264.296 264.31 264.296 263.974C264.296 263.77 264.35 263.572 264.458 263.38C264.566 263.188 264.722 262.984 264.926 262.768L268.544 258.916C269.096 258.34 269.492 257.818 269.732 257.35C269.972 256.87 270.092 256.39 270.092 255.91C270.092 255.31 269.9 254.854 269.516 254.542C269.144 254.23 268.598 254.074 267.878 254.074C267.47 254.074 267.062 254.134 266.654 254.254C266.246 254.362 265.832 254.554 265.412 254.83C265.196 254.974 264.992 255.034 264.8 255.01C264.62 254.986 264.458 254.908 264.314 254.776C264.182 254.644 264.092 254.482 264.044 254.29C263.996 254.098 264.002 253.906 264.062 253.714C264.134 253.51 264.278 253.336 264.494 253.192C265.01 252.844 265.586 252.58 266.222 252.4C266.87 252.22 267.518 252.13 268.166 252.13C269.078 252.13 269.846 252.268 270.47 252.544C271.094 252.82 271.568 253.222 271.892 253.75C272.216 254.278 272.378 254.92 272.378 255.676C272.378 256.18 272.294 256.672 272.126 257.152C271.97 257.632 271.724 258.118 271.388 258.61C271.064 259.102 270.638 259.624 270.11 260.176L266.726 263.704V263.092H272.018C272.342 263.092 272.588 263.17 272.756 263.326C272.924 263.482 273.008 263.716 273.008 264.028C273.008 264.34 272.924 264.58 272.756 264.748C272.588 264.916 272.342 265 272.018 265H265.394ZM279.661 265.18C278.617 265.18 277.723 264.934 276.979 264.442C276.247 263.938 275.689 263.218 275.305 262.282C274.921 261.346 274.729 260.212 274.729 258.88C274.729 257.8 274.849 256.846 275.089 256.018C275.341 255.178 275.701 254.47 276.169 253.894C276.637 253.318 277.207 252.88 277.879 252.58C278.563 252.28 279.331 252.13 280.183 252.13C280.711 252.13 281.245 252.214 281.785 252.382C282.337 252.538 282.853 252.778 283.333 253.102C283.525 253.222 283.651 253.378 283.711 253.57C283.771 253.762 283.777 253.954 283.729 254.146C283.693 254.326 283.609 254.488 283.477 254.632C283.357 254.764 283.201 254.848 283.009 254.884C282.817 254.908 282.607 254.854 282.379 254.722C281.971 254.482 281.587 254.314 281.227 254.218C280.867 254.122 280.507 254.074 280.147 254.074C279.451 254.074 278.863 254.236 278.383 254.56C277.903 254.884 277.537 255.37 277.285 256.018C277.045 256.666 276.925 257.476 276.925 258.448V259.798H276.709C276.805 259.186 277.003 258.664 277.303 258.232C277.615 257.788 278.011 257.452 278.491 257.224C278.971 256.984 279.505 256.864 280.093 256.864C280.825 256.864 281.473 257.038 282.037 257.386C282.601 257.734 283.045 258.214 283.369 258.826C283.693 259.438 283.855 260.14 283.855 260.932C283.855 261.748 283.675 262.48 283.315 263.128C282.967 263.764 282.475 264.268 281.839 264.64C281.215 265 280.489 265.18 279.661 265.18ZM279.535 263.344C279.967 263.344 280.345 263.248 280.669 263.056C281.005 262.864 281.263 262.594 281.443 262.246C281.623 261.886 281.713 261.478 281.713 261.022C281.713 260.554 281.623 260.146 281.443 259.798C281.263 259.45 281.005 259.18 280.669 258.988C280.345 258.784 279.967 258.682 279.535 258.682C279.103 258.682 278.725 258.784 278.401 258.988C278.077 259.18 277.819 259.45 277.627 259.798C277.447 260.146 277.357 260.554 277.357 261.022C277.357 261.478 277.447 261.886 277.627 262.246C277.819 262.594 278.077 262.864 278.401 263.056C278.725 263.248 279.103 263.344 279.535 263.344Z" fill="black"/>
<circle cx="28.5" cy="196.5" r="15.5" fill="white"/>
<path d="M20.808 203C20.496 203 20.25 202.916 20.07 202.748C19.902 202.568 19.818 202.328 19.818 202.028C19.818 201.716 19.902 201.482 20.07 201.326C20.25 201.17 20.496 201.092 20.808 201.092H22.824V192.254H23.94L21.294 193.856C21.066 193.988 20.85 194.042 20.646 194.018C20.454 193.982 20.286 193.898 20.142 193.766C20.01 193.622 19.92 193.454 19.872 193.262C19.824 193.07 19.836 192.878 19.908 192.686C19.992 192.482 20.148 192.314 20.376 192.182L22.86 190.688C23.1 190.544 23.34 190.424 23.58 190.328C23.82 190.22 24.042 190.166 24.246 190.166C24.498 190.166 24.708 190.238 24.876 190.382C25.044 190.514 25.128 190.736 25.128 191.048V201.092H26.964C27.276 201.092 27.516 201.17 27.684 201.326C27.864 201.482 27.954 201.716 27.954 202.028C27.954 202.34 27.864 202.58 27.684 202.748C27.516 202.916 27.276 203 26.964 203H20.808ZM33.941 203.18C33.293 203.18 32.621 203.096 31.925 202.928C31.229 202.76 30.623 202.508 30.107 202.172C29.867 202.016 29.705 201.836 29.621 201.632C29.537 201.428 29.513 201.236 29.549 201.056C29.597 200.864 29.687 200.702 29.819 200.57C29.963 200.438 30.137 200.36 30.341 200.336C30.557 200.312 30.791 200.366 31.043 200.498C31.535 200.762 32.009 200.954 32.465 201.074C32.921 201.182 33.389 201.236 33.869 201.236C34.397 201.236 34.841 201.164 35.201 201.02C35.561 200.876 35.831 200.66 36.011 200.372C36.203 200.084 36.299 199.736 36.299 199.328C36.299 198.728 36.095 198.284 35.687 197.996C35.291 197.696 34.709 197.546 33.941 197.546H32.789C32.453 197.546 32.195 197.462 32.015 197.294C31.847 197.126 31.763 196.892 31.763 196.592C31.763 196.292 31.847 196.058 32.015 195.89C32.195 195.722 32.453 195.638 32.789 195.638H33.725C34.181 195.638 34.571 195.566 34.895 195.422C35.219 195.266 35.471 195.05 35.651 194.774C35.831 194.498 35.921 194.162 35.921 193.766C35.921 193.214 35.735 192.794 35.363 192.506C35.003 192.218 34.475 192.074 33.779 192.074C33.335 192.074 32.915 192.128 32.519 192.236C32.135 192.332 31.709 192.518 31.241 192.794C31.025 192.926 30.815 192.98 30.611 192.956C30.419 192.932 30.257 192.854 30.125 192.722C29.993 192.59 29.903 192.434 29.855 192.254C29.807 192.062 29.819 191.87 29.891 191.678C29.963 191.474 30.113 191.3 30.341 191.156C30.857 190.82 31.427 190.568 32.051 190.4C32.675 190.22 33.317 190.13 33.977 190.13C34.853 190.13 35.603 190.268 36.227 190.544C36.851 190.808 37.325 191.192 37.649 191.696C37.985 192.188 38.153 192.788 38.153 193.496C38.153 194 38.057 194.462 37.865 194.882C37.673 195.29 37.403 195.638 37.055 195.926C36.707 196.214 36.287 196.418 35.795 196.538V196.322C36.659 196.466 37.331 196.826 37.811 197.402C38.291 197.966 38.531 198.674 38.531 199.526C38.531 200.27 38.345 200.918 37.973 201.47C37.601 202.022 37.073 202.448 36.389 202.748C35.705 203.036 34.889 203.18 33.941 203.18Z" fill="black"/>
<circle cx="70.5" cy="196.5" r="15.5" fill="white"/>
<path d="M62.808 203C62.496 203 62.25 202.916 62.07 202.748C61.902 202.568 61.818 202.328 61.818 202.028C61.818 201.716 61.902 201.482 62.07 201.326C62.25 201.17 62.496 201.092 62.808 201.092H64.824V192.254H65.94L63.294 193.856C63.066 193.988 62.85 194.042 62.646 194.018C62.454 193.982 62.286 193.898 62.142 193.766C62.01 193.622 61.92 193.454 61.872 193.262C61.824 193.07 61.836 192.878 61.908 192.686C61.992 192.482 62.148 192.314 62.376 192.182L64.86 190.688C65.1 190.544 65.34 190.424 65.58 190.328C65.82 190.22 66.042 190.166 66.246 190.166C66.498 190.166 66.708 190.238 66.876 190.382C67.044 190.514 67.128 190.736 67.128 191.048V201.092H68.964C69.276 201.092 69.516 201.17 69.684 201.326C69.864 201.482 69.954 201.716 69.954 202.028C69.954 202.34 69.864 202.58 69.684 202.748C69.516 202.916 69.276 203 68.964 203H62.808ZM78.227 203.144C77.867 203.144 77.585 203.048 77.381 202.856C77.177 202.652 77.075 202.364 77.075 201.992V200.588H72.629C72.257 200.588 71.957 200.51 71.729 200.354C71.513 200.198 71.405 199.952 71.405 199.616C71.405 199.424 71.453 199.214 71.549 198.986C71.657 198.758 71.843 198.458 72.107 198.086L77.039 190.94C77.207 190.688 77.393 190.496 77.597 190.364C77.801 190.232 78.035 190.166 78.299 190.166C78.611 190.166 78.869 190.262 79.073 190.454C79.277 190.634 79.379 190.922 79.379 191.318V198.68H80.261C80.609 198.68 80.867 198.764 81.035 198.932C81.215 199.088 81.305 199.322 81.305 199.634C81.305 199.946 81.215 200.186 81.035 200.354C80.867 200.51 80.609 200.588 80.261 200.588H79.379V201.992C79.379 202.364 79.277 202.652 79.073 202.856C78.869 203.048 78.587 203.144 78.227 203.144ZM77.075 198.68V193.064H77.597L73.349 199.292V198.68H77.075Z" fill="black"/>
<circle cx="110.5" cy="196.5" r="15.5" fill="white"/>
<path d="M102.808 203C102.496 203 102.25 202.916 102.07 202.748C101.902 202.568 101.818 202.328 101.818 202.028C101.818 201.716 101.902 201.482 102.07 201.326C102.25 201.17 102.496 201.092 102.808 201.092H104.824V192.254H105.94L103.294 193.856C103.066 193.988 102.85 194.042 102.646 194.018C102.454 193.982 102.286 193.898 102.142 193.766C102.01 193.622 101.92 193.454 101.872 193.262C101.824 193.07 101.836 192.878 101.908 192.686C101.992 192.482 102.148 192.314 102.376 192.182L104.86 190.688C105.1 190.544 105.34 190.424 105.58 190.328C105.82 190.22 106.042 190.166 106.246 190.166C106.498 190.166 106.708 190.238 106.876 190.382C107.044 190.514 107.128 190.736 107.128 191.048V201.092H108.964C109.276 201.092 109.516 201.17 109.684 201.326C109.864 201.482 109.954 201.716 109.954 202.028C109.954 202.34 109.864 202.58 109.684 202.748C109.516 202.916 109.276 203 108.964 203H102.808ZM116.301 203.18C115.665 203.18 115.017 203.096 114.357 202.928C113.697 202.76 113.091 202.502 112.539 202.154C112.311 202.01 112.155 201.842 112.071 201.65C111.999 201.446 111.981 201.248 112.017 201.056C112.065 200.852 112.155 200.684 112.287 200.552C112.431 200.408 112.599 200.324 112.791 200.3C112.995 200.276 113.217 200.33 113.457 200.462C113.901 200.714 114.351 200.906 114.807 201.038C115.263 201.17 115.749 201.236 116.265 201.236C116.769 201.236 117.201 201.146 117.561 200.966C117.921 200.786 118.197 200.534 118.389 200.21C118.581 199.886 118.677 199.508 118.677 199.076C118.677 198.404 118.473 197.864 118.065 197.456C117.657 197.036 117.099 196.826 116.391 196.826C116.007 196.826 115.635 196.892 115.275 197.024C114.915 197.144 114.561 197.36 114.213 197.672C114.105 197.768 113.967 197.864 113.799 197.96C113.631 198.044 113.451 198.086 113.259 198.086C112.959 198.086 112.731 198.008 112.575 197.852C112.419 197.696 112.341 197.48 112.341 197.204V191.318C112.341 190.994 112.425 190.748 112.593 190.58C112.773 190.4 113.025 190.31 113.349 190.31H119.271C119.595 190.31 119.841 190.394 120.009 190.562C120.189 190.718 120.279 190.952 120.279 191.264C120.279 191.564 120.189 191.798 120.009 191.966C119.841 192.134 119.595 192.218 119.271 192.218H114.591V196.25H113.997C114.309 195.83 114.723 195.506 115.239 195.278C115.755 195.05 116.319 194.936 116.931 194.936C117.735 194.936 118.431 195.11 119.019 195.458C119.619 195.794 120.081 196.268 120.405 196.88C120.741 197.48 120.909 198.182 120.909 198.986C120.909 199.814 120.723 200.546 120.351 201.182C119.979 201.806 119.445 202.298 118.749 202.658C118.065 203.006 117.249 203.18 116.301 203.18Z" fill="black"/>
<circle cx="27.5" cy="258.5" r="15.5" fill="white"/>
<path d="M19.394 265C19.01 265 18.728 264.916 18.548 264.748C18.38 264.568 18.296 264.31 18.296 263.974C18.296 263.77 18.35 263.572 18.458 263.38C18.566 263.188 18.722 262.984 18.926 262.768L22.544 258.916C23.096 258.34 23.492 257.818 23.732 257.35C23.972 256.87 24.092 256.39 24.092 255.91C24.092 255.31 23.9 254.854 23.516 254.542C23.144 254.23 22.598 254.074 21.878 254.074C21.47 254.074 21.062 254.134 20.654 254.254C20.246 254.362 19.832 254.554 19.412 254.83C19.196 254.974 18.992 255.034 18.8 255.01C18.62 254.986 18.458 254.908 18.314 254.776C18.182 254.644 18.092 254.482 18.044 254.29C17.996 254.098 18.002 253.906 18.062 253.714C18.134 253.51 18.278 253.336 18.494 253.192C19.01 252.844 19.586 252.58 20.222 252.4C20.87 252.22 21.518 252.13 22.166 252.13C23.078 252.13 23.846 252.268 24.47 252.544C25.094 252.82 25.568 253.222 25.892 253.75C26.216 254.278 26.378 254.92 26.378 255.676C26.378 256.18 26.294 256.672 26.126 257.152C25.97 257.632 25.724 258.118 25.388 258.61C25.064 259.102 24.638 259.624 24.11 260.176L20.726 263.704V263.092H26.018C26.342 263.092 26.588 263.17 26.756 263.326C26.924 263.482 27.008 263.716 27.008 264.028C27.008 264.34 26.924 264.58 26.756 264.748C26.588 264.916 26.342 265 26.018 265H19.394ZM33.193 265.18C31.693 265.18 30.547 264.616 29.755 263.488C28.963 262.348 28.567 260.728 28.567 258.628C28.567 257.212 28.741 256.024 29.089 255.064C29.449 254.092 29.971 253.36 30.655 252.868C31.351 252.376 32.197 252.13 33.193 252.13C34.705 252.13 35.851 252.682 36.631 253.786C37.423 254.89 37.819 256.498 37.819 258.61C37.819 260.014 37.639 261.208 37.279 262.192C36.931 263.164 36.415 263.908 35.731 264.424C35.047 264.928 34.201 265.18 33.193 265.18ZM33.193 263.29C34.009 263.29 34.609 262.912 34.993 262.156C35.389 261.4 35.587 260.218 35.587 258.61C35.587 257.002 35.389 255.838 34.993 255.118C34.609 254.386 34.009 254.02 33.193 254.02C32.389 254.02 31.789 254.386 31.393 255.118C30.997 255.838 30.799 257.002 30.799 258.61C30.799 260.218 30.997 261.4 31.393 262.156C31.789 262.912 32.389 263.29 33.193 263.29Z" fill="black"/>
<circle cx="70.5" cy="258.5" r="15.5" fill="white"/>
<path d="M62.394 265C62.01 265 61.728 264.916 61.548 264.748C61.38 264.568 61.296 264.31 61.296 263.974C61.296 263.77 61.35 263.572 61.458 263.38C61.566 263.188 61.722 262.984 61.926 262.768L65.544 258.916C66.096 258.34 66.492 257.818 66.732 257.35C66.972 256.87 67.092 256.39 67.092 255.91C67.092 255.31 66.9 254.854 66.516 254.542C66.144 254.23 65.598 254.074 64.878 254.074C64.47 254.074 64.062 254.134 63.654 254.254C63.246 254.362 62.832 254.554 62.412 254.83C62.196 254.974 61.992 255.034 61.8 255.01C61.62 254.986 61.458 254.908 61.314 254.776C61.182 254.644 61.092 254.482 61.044 254.29C60.996 254.098 61.002 253.906 61.062 253.714C61.134 253.51 61.278 253.336 61.494 253.192C62.01 252.844 62.586 252.58 63.222 252.4C63.87 252.22 64.518 252.13 65.166 252.13C66.078 252.13 66.846 252.268 67.47 252.544C68.094 252.82 68.568 253.222 68.892 253.75C69.216 254.278 69.378 254.92 69.378 255.676C69.378 256.18 69.294 256.672 69.126 257.152C68.97 257.632 68.724 258.118 68.388 258.61C68.064 259.102 67.638 259.624 67.11 260.176L63.726 263.704V263.092H69.018C69.342 263.092 69.588 263.17 69.756 263.326C69.924 263.482 70.008 263.716 70.008 264.028C70.008 264.34 69.924 264.58 69.756 264.748C69.588 264.916 69.342 265 69.018 265H62.394ZM73.601 265C73.289 265 73.043 264.916 72.863 264.748C72.695 264.568 72.611 264.328 72.611 264.028C72.611 263.716 72.695 263.482 72.863 263.326C73.043 263.17 73.289 263.092 73.601 263.092H75.617V254.254H76.733L74.087 255.856C73.859 255.988 73.643 256.042 73.439 256.018C73.247 255.982 73.079 255.898 72.935 255.766C72.803 255.622 72.713 255.454 72.665 255.262C72.617 255.07 72.629 254.878 72.701 254.686C72.785 254.482 72.941 254.314 73.169 254.182L75.653 252.688C75.893 252.544 76.133 252.424 76.373 252.328C76.613 252.22 76.835 252.166 77.039 252.166C77.291 252.166 77.501 252.238 77.669 252.382C77.837 252.514 77.921 252.736 77.921 253.048V263.092H79.757C80.069 263.092 80.309 263.17 80.477 263.326C80.657 263.482 80.747 263.716 80.747 264.028C80.747 264.34 80.657 264.58 80.477 264.748C80.309 264.916 80.069 265 79.757 265H73.601Z" fill="black"/>
<circle cx="109.5" cy="258.5" r="15.5" fill="white"/>
<path d="M101.394 265C101.01 265 100.728 264.916 100.548 264.748C100.38 264.568 100.296 264.31 100.296 263.974C100.296 263.77 100.35 263.572 100.458 263.38C100.566 263.188 100.722 262.984 100.926 262.768L104.544 258.916C105.096 258.34 105.492 257.818 105.732 257.35C105.972 256.87 106.092 256.39 106.092 255.91C106.092 255.31 105.9 254.854 105.516 254.542C105.144 254.23 104.598 254.074 103.878 254.074C103.47 254.074 103.062 254.134 102.654 254.254C102.246 254.362 101.832 254.554 101.412 254.83C101.196 254.974 100.992 255.034 100.8 255.01C100.62 254.986 100.458 254.908 100.314 254.776C100.182 254.644 100.092 254.482 100.044 254.29C99.996 254.098 100.002 253.906 100.062 253.714C100.134 253.51 100.278 253.336 100.494 253.192C101.01 252.844 101.586 252.58 102.222 252.4C102.87 252.22 103.518 252.13 104.166 252.13C105.078 252.13 105.846 252.268 106.47 252.544C107.094 252.82 107.568 253.222 107.892 253.75C108.216 254.278 108.378 254.92 108.378 255.676C108.378 256.18 108.294 256.672 108.126 257.152C107.97 257.632 107.724 258.118 107.388 258.61C107.064 259.102 106.638 259.624 106.11 260.176L102.726 263.704V263.092H108.018C108.342 263.092 108.588 263.17 108.756 263.326C108.924 263.482 109.008 263.716 109.008 264.028C109.008 264.34 108.924 264.58 108.756 264.748C108.588 264.916 108.342 265 108.018 265H101.394ZM112.187 265C111.803 265 111.521 264.916 111.341 264.748C111.173 264.568 111.089 264.31 111.089 263.974C111.089 263.77 111.143 263.572 111.251 263.38C111.359 263.188 111.515 262.984 111.719 262.768L115.337 258.916C115.889 258.34 116.285 257.818 116.525 257.35C116.765 256.87 116.885 256.39 116.885 255.91C116.885 255.31 116.693 254.854 116.309 254.542C115.937 254.23 115.391 254.074 114.671 254.074C114.263 254.074 113.855 254.134 113.447 254.254C113.039 254.362 112.625 254.554 112.205 254.83C111.989 254.974 111.785 255.034 111.593 255.01C111.413 254.986 111.251 254.908 111.107 254.776C110.975 254.644 110.885 254.482 110.837 254.29C110.789 254.098 110.795 253.906 110.855 253.714C110.927 253.51 111.071 253.336 111.287 253.192C111.803 252.844 112.379 252.58 113.015 252.4C113.663 252.22 114.311 252.13 114.959 252.13C115.871 252.13 116.639 252.268 117.263 252.544C117.887 252.82 118.361 253.222 118.685 253.75C119.009 254.278 119.171 254.92 119.171 255.676C119.171 256.18 119.087 256.672 118.919 257.152C118.763 257.632 118.517 258.118 118.181 258.61C117.857 259.102 117.431 259.624 116.903 260.176L113.519 263.704V263.092H118.811C119.135 263.092 119.381 263.17 119.549 263.326C119.717 263.482 119.801 263.716 119.801 264.028C119.801 264.34 119.717 264.58 119.549 264.748C119.381 264.916 119.135 265 118.811 265H112.187Z" fill="black"/>
<circle cx="150.5" cy="258.5" r="15.5" fill="white"/>
<path d="M142.394 265C142.01 265 141.728 264.916 141.548 264.748C141.38 264.568 141.296 264.31 141.296 263.974C141.296 263.77 141.35 263.572 141.458 263.38C141.566 263.188 141.722 262.984 141.926 262.768L145.544 258.916C146.096 258.34 146.492 257.818 146.732 257.35C146.972 256.87 147.092 256.39 147.092 255.91C147.092 255.31 146.9 254.854 146.516 254.542C146.144 254.23 145.598 254.074 144.878 254.074C144.47 254.074 144.062 254.134 143.654 254.254C143.246 254.362 142.832 254.554 142.412 254.83C142.196 254.974 141.992 255.034 141.8 255.01C141.62 254.986 141.458 254.908 141.314 254.776C141.182 254.644 141.092 254.482 141.044 254.29C140.996 254.098 141.002 253.906 141.062 253.714C141.134 253.51 141.278 253.336 141.494 253.192C142.01 252.844 142.586 252.58 143.222 252.4C143.87 252.22 144.518 252.13 145.166 252.13C146.078 252.13 146.846 252.268 147.47 252.544C148.094 252.82 148.568 253.222 148.892 253.75C149.216 254.278 149.378 254.92 149.378 255.676C149.378 256.18 149.294 256.672 149.126 257.152C148.97 257.632 148.724 258.118 148.388 258.61C148.064 259.102 147.638 259.624 147.11 260.176L143.726 263.704V263.092H149.018C149.342 263.092 149.588 263.17 149.756 263.326C149.924 263.482 150.008 263.716 150.008 264.028C150.008 264.34 149.924 264.58 149.756 264.748C149.588 264.916 149.342 265 149.018 265H142.394ZM155.941 265.18C155.293 265.18 154.621 265.096 153.925 264.928C153.229 264.76 152.623 264.508 152.107 264.172C151.867 264.016 151.705 263.836 151.621 263.632C151.537 263.428 151.513 263.236 151.549 263.056C151.597 262.864 151.687 262.702 151.819 262.57C151.963 262.438 152.137 262.36 152.341 262.336C152.557 262.312 152.791 262.366 153.043 262.498C153.535 262.762 154.009 262.954 154.465 263.074C154.921 263.182 155.389 263.236 155.869 263.236C156.397 263.236 156.841 263.164 157.201 263.02C157.561 262.876 157.831 262.66 158.011 262.372C158.203 262.084 158.299 261.736 158.299 261.328C158.299 260.728 158.095 260.284 157.687 259.996C157.291 259.696 156.709 259.546 155.941 259.546H154.789C154.453 259.546 154.195 259.462 154.015 259.294C153.847 259.126 153.763 258.892 153.763 258.592C153.763 258.292 153.847 258.058 154.015 257.89C154.195 257.722 154.453 257.638 154.789 257.638H155.725C156.181 257.638 156.571 257.566 156.895 257.422C157.219 257.266 157.471 257.05 157.651 256.774C157.831 256.498 157.921 256.162 157.921 255.766C157.921 255.214 157.735 254.794 157.363 254.506C157.003 254.218 156.475 254.074 155.779 254.074C155.335 254.074 154.915 254.128 154.519 254.236C154.135 254.332 153.709 254.518 153.241 254.794C153.025 254.926 152.815 254.98 152.611 254.956C152.419 254.932 152.257 254.854 152.125 254.722C151.993 254.59 151.903 254.434 151.855 254.254C151.807 254.062 151.819 253.87 151.891 253.678C151.963 253.474 152.113 253.3 152.341 253.156C152.857 252.82 153.427 252.568 154.051 252.4C154.675 252.22 155.317 252.13 155.977 252.13C156.853 252.13 157.603 252.268 158.227 252.544C158.851 252.808 159.325 253.192 159.649 253.696C159.985 254.188 160.153 254.788 160.153 255.496C160.153 256 160.057 256.462 159.865 256.882C159.673 257.29 159.403 257.638 159.055 257.926C158.707 258.214 158.287 258.418 157.795 258.538V258.322C158.659 258.466 159.331 258.826 159.811 259.402C160.291 259.966 160.531 260.674 160.531 261.526C160.531 262.27 160.345 262.918 159.973 263.47C159.601 264.022 159.073 264.448 158.389 264.748C157.705 265.036 156.889 265.18 155.941 265.18Z" fill="black"/>
<circle cx="27.5" cy="320.5" r="15.5" fill="#FFAA5B"/>
<path d="M19.394 327C19.01 327 18.728 326.916 18.548 326.748C18.38 326.568 18.296 326.31 18.296 325.974C18.296 325.77 18.35 325.572 18.458 325.38C18.566 325.188 18.722 324.984 18.926 324.768L22.544 320.916C23.096 320.34 23.492 319.818 23.732 319.35C23.972 318.87 24.092 318.39 24.092 317.91C24.092 317.31 23.9 316.854 23.516 316.542C23.144 316.23 22.598 316.074 21.878 316.074C21.47 316.074 21.062 316.134 20.654 316.254C20.246 316.362 19.832 316.554 19.412 316.83C19.196 316.974 18.992 317.034 18.8 317.01C18.62 316.986 18.458 316.908 18.314 316.776C18.182 316.644 18.092 316.482 18.044 316.29C17.996 316.098 18.002 315.906 18.062 315.714C18.134 315.51 18.278 315.336 18.494 315.192C19.01 314.844 19.586 314.58 20.222 314.4C20.87 314.22 21.518 314.13 22.166 314.13C23.078 314.13 23.846 314.268 24.47 314.544C25.094 314.82 25.568 315.222 25.892 315.75C26.216 316.278 26.378 316.92 26.378 317.676C26.378 318.18 26.294 318.672 26.126 319.152C25.97 319.632 25.724 320.118 25.388 320.61C25.064 321.102 24.638 321.624 24.11 322.176L20.726 325.704V325.092H26.018C26.342 325.092 26.588 325.17 26.756 325.326C26.924 325.482 27.008 325.716 27.008 326.028C27.008 326.34 26.924 326.58 26.756 326.748C26.588 326.916 26.342 327 26.018 327H19.394ZM30.889 327.144C30.613 327.144 30.385 327.078 30.205 326.946C30.025 326.814 29.917 326.64 29.881 326.424C29.845 326.196 29.899 325.944 30.043 325.668L35.479 315.444V316.236H29.647C29.323 316.236 29.071 316.152 28.891 315.984C28.723 315.816 28.639 315.582 28.639 315.282C28.639 314.97 28.723 314.73 28.891 314.562C29.071 314.394 29.323 314.31 29.647 314.31H36.613C36.937 314.31 37.201 314.394 37.405 314.562C37.609 314.73 37.711 314.97 37.711 315.282C37.711 315.546 37.675 315.78 37.603 315.984C37.531 316.176 37.435 316.386 37.315 316.614L32.203 326.388C32.071 326.652 31.897 326.844 31.681 326.964C31.477 327.084 31.213 327.144 30.889 327.144Z" fill="black"/>
<circle cx="70.5" cy="320.5" r="15.5" fill="white"/>
<path d="M62.394 327C62.01 327 61.728 326.916 61.548 326.748C61.38 326.568 61.296 326.31 61.296 325.974C61.296 325.77 61.35 325.572 61.458 325.38C61.566 325.188 61.722 324.984 61.926 324.768L65.544 320.916C66.096 320.34 66.492 319.818 66.732 319.35C66.972 318.87 67.092 318.39 67.092 317.91C67.092 317.31 66.9 316.854 66.516 316.542C66.144 316.23 65.598 316.074 64.878 316.074C64.47 316.074 64.062 316.134 63.654 316.254C63.246 316.362 62.832 316.554 62.412 316.83C62.196 316.974 61.992 317.034 61.8 317.01C61.62 316.986 61.458 316.908 61.314 316.776C61.182 316.644 61.092 316.482 61.044 316.29C60.996 316.098 61.002 315.906 61.062 315.714C61.134 315.51 61.278 315.336 61.494 315.192C62.01 314.844 62.586 314.58 63.222 314.4C63.87 314.22 64.518 314.13 65.166 314.13C66.078 314.13 66.846 314.268 67.47 314.544C68.094 314.82 68.568 315.222 68.892 315.75C69.216 316.278 69.378 316.92 69.378 317.676C69.378 318.18 69.294 318.672 69.126 319.152C68.97 319.632 68.724 320.118 68.388 320.61C68.064 321.102 67.638 321.624 67.11 322.176L63.726 325.704V325.092H69.018C69.342 325.092 69.588 325.17 69.756 325.326C69.924 325.482 70.008 325.716 70.008 326.028C70.008 326.34 69.924 326.58 69.756 326.748C69.588 326.916 69.342 327 69.018 327H62.394ZM76.193 327.18C75.209 327.18 74.363 327.042 73.655 326.766C72.959 326.478 72.419 326.064 72.035 325.524C71.663 324.984 71.477 324.336 71.477 323.58C71.477 322.98 71.597 322.452 71.837 321.996C72.089 321.528 72.431 321.15 72.863 320.862C73.295 320.574 73.787 320.394 74.339 320.322V320.7C73.571 320.532 72.953 320.166 72.485 319.602C72.029 319.026 71.801 318.342 71.801 317.55C71.801 316.83 71.981 316.218 72.341 315.714C72.701 315.198 73.211 314.808 73.871 314.544C74.531 314.268 75.305 314.13 76.193 314.13C77.093 314.13 77.873 314.268 78.533 314.544C79.193 314.808 79.703 315.198 80.063 315.714C80.423 316.218 80.603 316.83 80.603 317.55C80.603 318.078 80.495 318.564 80.279 319.008C80.075 319.452 79.781 319.818 79.397 320.106C79.025 320.394 78.587 320.586 78.083 320.682V320.322C78.923 320.442 79.601 320.796 80.117 321.384C80.645 321.96 80.909 322.692 80.909 323.58C80.909 324.336 80.717 324.984 80.333 325.524C79.961 326.064 79.421 326.478 78.713 326.766C78.017 327.042 77.177 327.18 76.193 327.18ZM76.193 325.38C77.045 325.38 77.687 325.218 78.119 324.894C78.551 324.558 78.767 324.066 78.767 323.418C78.767 322.77 78.551 322.284 78.119 321.96C77.687 321.636 77.045 321.474 76.193 321.474C75.353 321.474 74.711 321.636 74.267 321.96C73.835 322.284 73.619 322.77 73.619 323.418C73.619 324.066 73.835 324.558 74.267 324.894C74.711 325.218 75.353 325.38 76.193 325.38ZM76.193 319.674C76.673 319.674 77.081 319.602 77.417 319.458C77.753 319.302 78.011 319.08 78.191 318.792C78.371 318.504 78.461 318.168 78.461 317.784C78.461 317.208 78.257 316.758 77.849 316.434C77.453 316.098 76.901 315.93 76.193 315.93C75.485 315.93 74.933 316.098 74.537 316.434C74.141 316.758 73.943 317.208 73.943 317.784C73.943 318.372 74.141 318.834 74.537 319.17C74.933 319.506 75.485 319.674 76.193 319.674Z" fill="black"/>
<circle cx="109.5" cy="320.5" r="15.5" fill="white"/>
<path d="M101.394 327C101.01 327 100.728 326.916 100.548 326.748C100.38 326.568 100.296 326.31 100.296 325.974C100.296 325.77 100.35 325.572 100.458 325.38C100.566 325.188 100.722 324.984 100.926 324.768L104.544 320.916C105.096 320.34 105.492 319.818 105.732 319.35C105.972 318.87 106.092 318.39 106.092 317.91C106.092 317.31 105.9 316.854 105.516 316.542C105.144 316.23 104.598 316.074 103.878 316.074C103.47 316.074 103.062 316.134 102.654 316.254C102.246 316.362 101.832 316.554 101.412 316.83C101.196 316.974 100.992 317.034 100.8 317.01C100.62 316.986 100.458 316.908 100.314 316.776C100.182 316.644 100.092 316.482 100.044 316.29C99.996 316.098 100.002 315.906 100.062 315.714C100.134 315.51 100.278 315.336 100.494 315.192C101.01 314.844 101.586 314.58 102.222 314.4C102.87 314.22 103.518 314.13 104.166 314.13C105.078 314.13 105.846 314.268 106.47 314.544C107.094 314.82 107.568 315.222 107.892 315.75C108.216 316.278 108.378 316.92 108.378 317.676C108.378 318.18 108.294 318.672 108.126 319.152C107.97 319.632 107.724 320.118 107.388 320.61C107.064 321.102 106.638 321.624 106.11 322.176L102.726 325.704V325.092H108.018C108.342 325.092 108.588 325.17 108.756 325.326C108.924 325.482 109.008 325.716 109.008 326.028C109.008 326.34 108.924 326.58 108.756 326.748C108.588 326.916 108.342 327 108.018 327H101.394ZM114.203 327.18C113.687 327.18 113.153 327.102 112.601 326.946C112.049 326.778 111.533 326.532 111.053 326.208C110.861 326.088 110.735 325.932 110.675 325.74C110.615 325.548 110.603 325.362 110.639 325.182C110.687 324.99 110.771 324.828 110.891 324.696C111.023 324.552 111.185 324.468 111.377 324.444C111.569 324.408 111.779 324.456 112.007 324.588C112.415 324.828 112.799 324.996 113.159 325.092C113.519 325.188 113.879 325.236 114.239 325.236C114.935 325.236 115.523 325.074 116.003 324.75C116.483 324.426 116.843 323.94 117.083 323.292C117.335 322.632 117.461 321.822 117.461 320.862V319.512H117.677C117.593 320.112 117.395 320.634 117.083 321.078C116.771 321.522 116.375 321.864 115.895 322.104C115.415 322.332 114.881 322.446 114.293 322.446C113.573 322.446 112.925 322.272 112.349 321.924C111.785 321.576 111.341 321.096 111.017 320.484C110.693 319.86 110.531 319.158 110.531 318.378C110.531 317.55 110.705 316.818 111.053 316.182C111.413 315.546 111.911 315.048 112.547 314.688C113.183 314.316 113.909 314.13 114.725 314.13C115.781 314.13 116.675 314.376 117.407 314.868C118.139 315.36 118.697 316.08 119.081 317.028C119.465 317.964 119.657 319.098 119.657 320.43C119.657 321.51 119.531 322.47 119.279 323.31C119.039 324.138 118.685 324.84 118.217 325.416C117.749 325.992 117.173 326.43 116.489 326.73C115.817 327.03 115.055 327.18 114.203 327.18ZM114.869 320.61C115.301 320.61 115.679 320.514 116.003 320.322C116.339 320.118 116.597 319.842 116.777 319.494C116.957 319.134 117.047 318.726 117.047 318.27C117.047 317.802 116.957 317.394 116.777 317.046C116.597 316.698 116.339 316.428 116.003 316.236C115.679 316.044 115.301 315.948 114.869 315.948C114.437 315.948 114.059 316.044 113.735 316.236C113.411 316.428 113.153 316.698 112.961 317.046C112.781 317.394 112.691 317.802 112.691 318.27C112.691 318.726 112.781 319.134 112.961 319.494C113.153 319.842 113.411 320.118 113.735 320.322C114.059 320.514 114.437 320.61 114.869 320.61Z" fill="black"/>
<circle cx="150.5" cy="320.5" r="15.5" fill="white"/>
<path d="M145.148 327.18C144.5 327.18 143.828 327.096 143.132 326.928C142.436 326.76 141.83 326.508 141.314 326.172C141.074 326.016 140.912 325.836 140.828 325.632C140.744 325.428 140.72 325.236 140.756 325.056C140.804 324.864 140.894 324.702 141.026 324.57C141.17 324.438 141.344 324.36 141.548 324.336C141.764 324.312 141.998 324.366 142.25 324.498C142.742 324.762 143.216 324.954 143.672 325.074C144.128 325.182 144.596 325.236 145.076 325.236C145.604 325.236 146.048 325.164 146.408 325.02C146.768 324.876 147.038 324.66 147.218 324.372C147.41 324.084 147.506 323.736 147.506 323.328C147.506 322.728 147.302 322.284 146.894 321.996C146.498 321.696 145.916 321.546 145.148 321.546H143.996C143.66 321.546 143.402 321.462 143.222 321.294C143.054 321.126 142.97 320.892 142.97 320.592C142.97 320.292 143.054 320.058 143.222 319.89C143.402 319.722 143.66 319.638 143.996 319.638H144.932C145.388 319.638 145.778 319.566 146.102 319.422C146.426 319.266 146.678 319.05 146.858 318.774C147.038 318.498 147.128 318.162 147.128 317.766C147.128 317.214 146.942 316.794 146.57 316.506C146.21 316.218 145.682 316.074 144.986 316.074C144.542 316.074 144.122 316.128 143.726 316.236C143.342 316.332 142.916 316.518 142.448 316.794C142.232 316.926 142.022 316.98 141.818 316.956C141.626 316.932 141.464 316.854 141.332 316.722C141.2 316.59 141.11 316.434 141.062 316.254C141.014 316.062 141.026 315.87 141.098 315.678C141.17 315.474 141.32 315.3 141.548 315.156C142.064 314.82 142.634 314.568 143.258 314.4C143.882 314.22 144.524 314.13 145.184 314.13C146.06 314.13 146.81 314.268 147.434 314.544C148.058 314.808 148.532 315.192 148.856 315.696C149.192 316.188 149.36 316.788 149.36 317.496C149.36 318 149.264 318.462 149.072 318.882C148.88 319.29 148.61 319.638 148.262 319.926C147.914 320.214 147.494 320.418 147.002 320.538V320.322C147.866 320.466 148.538 320.826 149.018 321.402C149.498 321.966 149.738 322.674 149.738 323.526C149.738 324.27 149.552 324.918 149.18 325.47C148.808 326.022 148.28 326.448 147.596 326.748C146.912 327.036 146.096 327.18 145.148 327.18ZM156.193 327.18C154.693 327.18 153.547 326.616 152.755 325.488C151.963 324.348 151.567 322.728 151.567 320.628C151.567 319.212 151.741 318.024 152.089 317.064C152.449 316.092 152.971 315.36 153.655 314.868C154.351 314.376 155.197 314.13 156.193 314.13C157.705 314.13 158.851 314.682 159.631 315.786C160.423 316.89 160.819 318.498 160.819 320.61C160.819 322.014 160.639 323.208 160.279 324.192C159.931 325.164 159.415 325.908 158.731 326.424C158.047 326.928 157.201 327.18 156.193 327.18ZM156.193 325.29C157.009 325.29 157.609 324.912 157.993 324.156C158.389 323.4 158.587 322.218 158.587 320.61C158.587 319.002 158.389 317.838 157.993 317.118C157.609 316.386 157.009 316.02 156.193 316.02C155.389 316.02 154.789 316.386 154.393 317.118C153.997 317.838 153.799 319.002 153.799 320.61C153.799 322.218 153.997 323.4 154.393 324.156C154.789 324.912 155.389 325.29 156.193 325.29Z" fill="black"/>
<path d="M12.264 24V12.72H13.976L17.976 20.096L21.96 12.72H23.64V24H21.784V16.4L18.552 22.288H17.352L14.12 16.432V24H12.264ZM29.4986 24.16C28.688 24.16 27.984 23.9947 27.3866 23.664C26.7893 23.3333 26.3253 22.864 25.9946 22.256C25.664 21.6373 25.4986 20.912 25.4986 20.08C25.4986 19.248 25.664 18.528 25.9946 17.92C26.3253 17.312 26.7893 16.8427 27.3866 16.512C27.984 16.1813 28.688 16.016 29.4986 16.016C30.3093 16.016 31.0133 16.1813 31.6106 16.512C32.208 16.8427 32.672 17.312 33.0026 17.92C33.3333 18.528 33.4986 19.248 33.4986 20.08C33.4986 20.912 33.3333 21.6373 33.0026 22.256C32.672 22.864 32.208 23.3333 31.6106 23.664C31.0133 23.9947 30.3093 24.16 29.4986 24.16ZM29.4986 22.64C30.096 22.64 30.576 22.4267 30.9386 22C31.3013 21.5627 31.4826 20.9227 31.4826 20.08C31.4826 19.2267 31.3013 18.592 30.9386 18.176C30.576 17.7493 30.096 17.536 29.4986 17.536C28.9013 17.536 28.4213 17.7493 28.0586 18.176C27.696 18.592 27.5146 19.2267 27.5146 20.08C27.5146 20.9227 27.696 21.5627 28.0586 22C28.4213 22.4267 28.9013 22.64 29.4986 22.64ZM35.1494 24V16.176H37.1014V17.392C37.368 16.944 37.7254 16.6027 38.1734 16.368C38.632 16.1333 39.144 16.016 39.7094 16.016C41.5547 16.016 42.4774 17.088 42.4774 19.232V24H40.4774V19.328C40.4774 18.72 40.36 18.2773 40.1254 18C39.9014 17.7227 39.5494 17.584 39.0694 17.584C38.4827 17.584 38.0134 17.7707 37.6614 18.144C37.32 18.5067 37.1494 18.992 37.1494 19.6V24H35.1494Z" fill="black"/>
<path d="M58.952 24V14.432H55.08V12.72H64.872V14.432H61V24H58.952ZM67.6064 24.16C65.6864 24.16 64.7264 23.0827 64.7264 20.928V16.176H66.7264V20.96C66.7264 21.5147 66.8384 21.9253 67.0624 22.192C67.2864 22.4587 67.6437 22.592 68.1344 22.592C68.6677 22.592 69.105 22.4107 69.4464 22.048C69.7877 21.6747 69.9584 21.184 69.9584 20.576V16.176H71.9584V24H70.0064V22.832C69.4837 23.7173 68.6837 24.16 67.6064 24.16ZM77.896 24.16C77.0107 24.16 76.248 23.9947 75.608 23.664C74.968 23.3333 74.472 22.864 74.12 22.256C73.7787 21.648 73.608 20.928 73.608 20.096C73.608 19.2853 73.7733 18.576 74.104 17.968C74.4453 17.36 74.9093 16.8853 75.496 16.544C76.0933 16.192 76.7707 16.016 77.528 16.016C78.6373 16.016 79.512 16.368 80.152 17.072C80.8027 17.776 81.128 18.736 81.128 19.952V20.544H75.528C75.6773 21.9413 76.4773 22.64 77.928 22.64C78.3653 22.64 78.8027 22.576 79.24 22.448C79.6773 22.3093 80.0773 22.096 80.44 21.808L81 23.152C80.6267 23.4613 80.1573 23.7067 79.592 23.888C79.0267 24.0693 78.4613 24.16 77.896 24.16ZM77.608 17.376C77.0213 17.376 76.5467 17.5573 76.184 17.92C75.8213 18.2827 75.6027 18.7733 75.528 19.392H79.464C79.4213 18.7413 79.24 18.2453 78.92 17.904C78.6107 17.552 78.1733 17.376 77.608 17.376Z" fill="black"/>
<path d="M98.336 24L94.352 12.72H96.464L99.264 21.04L102.208 12.72H103.728L106.608 21.152L109.488 12.72H111.488L107.472 24H105.776L102.912 15.856L100.032 24H98.336ZM115.693 24.16C114.808 24.16 114.045 23.9947 113.405 23.664C112.765 23.3333 112.269 22.864 111.917 22.256C111.576 21.648 111.405 20.928 111.405 20.096C111.405 19.2853 111.57 18.576 111.901 17.968C112.242 17.36 112.706 16.8853 113.293 16.544C113.89 16.192 114.568 16.016 115.325 16.016C116.434 16.016 117.309 16.368 117.949 17.072C118.6 17.776 118.925 18.736 118.925 19.952V20.544H113.325C113.474 21.9413 114.274 22.64 115.725 22.64C116.162 22.64 116.6 22.576 117.037 22.448C117.474 22.3093 117.874 22.096 118.237 21.808L118.797 23.152C118.424 23.4613 117.954 23.7067 117.389 23.888C116.824 24.0693 116.258 24.16 115.693 24.16ZM115.405 17.376C114.818 17.376 114.344 17.5573 113.981 17.92C113.618 18.2827 113.4 18.7733 113.325 19.392H117.261C117.218 18.7413 117.037 18.2453 116.717 17.904C116.408 17.552 115.97 17.376 115.405 17.376ZM123.517 24.16C122.834 24.16 122.231 23.9947 121.709 23.664C121.197 23.3333 120.797 22.864 120.509 22.256C120.221 21.6373 120.077 20.912 120.077 20.08C120.077 19.2373 120.221 18.5173 120.509 17.92C120.797 17.312 121.197 16.8427 121.709 16.512C122.231 16.1813 122.834 16.016 123.517 16.016C124.071 16.016 124.573 16.1387 125.021 16.384C125.469 16.6293 125.805 16.9547 126.029 17.36V12.72H128.029V24H126.077V22.704C125.863 23.152 125.527 23.5093 125.069 23.776C124.61 24.032 124.093 24.16 123.517 24.16ZM124.077 22.64C124.674 22.64 125.154 22.4267 125.517 22C125.879 21.5627 126.061 20.9227 126.061 20.08C126.061 19.2267 125.879 18.592 125.517 18.176C125.154 17.7493 124.674 17.536 124.077 17.536C123.479 17.536 122.999 17.7493 122.637 18.176C122.274 18.592 122.093 19.2267 122.093 20.08C122.093 20.9227 122.274 21.5627 122.637 22C122.999 22.4267 123.479 22.64 124.077 22.64Z" fill="black"/>
<path d="M144.952 24V14.432H141.08V12.72H150.872V14.432H147V24H144.952ZM151.978 24V12.72H153.978V17.312C154.244 16.8853 154.602 16.5653 155.049 16.352C155.498 16.128 155.994 16.016 156.538 16.016C158.383 16.016 159.306 17.088 159.306 19.232V24H157.306V19.328C157.306 18.72 157.188 18.2773 156.954 18C156.73 17.7227 156.378 17.584 155.898 17.584C155.311 17.584 154.842 17.7707 154.49 18.144C154.148 18.5067 153.978 18.992 153.978 19.6V24H151.978ZM164.169 24.16C162.249 24.16 161.289 23.0827 161.289 20.928V16.176H163.289V20.96C163.289 21.5147 163.401 21.9253 163.625 22.192C163.849 22.4587 164.206 22.592 164.697 22.592C165.23 22.592 165.668 22.4107 166.009 22.048C166.35 21.6747 166.521 21.184 166.521 20.576V16.176H168.521V24H166.569V22.832C166.046 23.7173 165.246 24.16 164.169 24.16Z" fill="black"/>
<path d="M184.232 24V12.72H191.608V14.352H186.28V17.536H191.272V19.168H186.28V24H184.232ZM192.868 24V16.176H194.82V17.552C195.204 16.624 196.025 16.112 197.284 16.016L197.892 15.968L198.02 17.664L196.868 17.776C195.556 17.904 194.9 18.576 194.9 19.792V24H192.868ZM199.006 14.496V12.544H201.246V14.496H199.006ZM199.134 24V16.176H201.134V24H199.134Z" fill="black"/>
<path d="M223.12 24.16C222.235 24.16 221.413 24.048 220.656 23.824C219.899 23.5893 219.259 23.2747 218.736 22.88L219.36 21.264C219.883 21.6373 220.453 21.9253 221.072 22.128C221.701 22.3307 222.384 22.432 223.12 22.432C223.963 22.432 224.576 22.2933 224.96 22.016C225.344 21.728 225.536 21.36 225.536 20.912C225.536 20.5387 225.397 20.2453 225.12 20.032C224.853 19.8187 224.389 19.6427 223.728 19.504L221.968 19.136C219.963 18.7093 218.96 17.68 218.96 16.048C218.96 15.344 219.147 14.7307 219.52 14.208C219.893 13.6853 220.411 13.28 221.072 12.992C221.733 12.704 222.496 12.56 223.36 12.56C224.128 12.56 224.848 12.6773 225.52 12.912C226.192 13.136 226.752 13.456 227.2 13.872L226.576 15.408C225.691 14.6613 224.613 14.288 223.344 14.288C222.608 14.288 222.032 14.4427 221.616 14.752C221.2 15.0613 220.992 15.4667 220.992 15.968C220.992 16.352 221.12 16.6613 221.376 16.896C221.632 17.12 222.069 17.296 222.688 17.424L224.432 17.792C225.488 18.016 226.272 18.368 226.784 18.848C227.307 19.328 227.568 19.968 227.568 20.768C227.568 21.44 227.387 22.032 227.024 22.544C226.661 23.056 226.144 23.456 225.472 23.744C224.811 24.0213 224.027 24.16 223.12 24.16ZM231.71 24.16C231.144 24.16 230.638 24.0533 230.19 23.84C229.752 23.616 229.406 23.3173 229.15 22.944C228.904 22.5707 228.782 22.1493 228.782 21.68C228.782 21.104 228.931 20.6507 229.23 20.32C229.528 19.9787 230.014 19.7333 230.686 19.584C231.358 19.4347 232.259 19.36 233.39 19.36H233.95V19.024C233.95 18.4907 233.832 18.1067 233.598 17.872C233.363 17.6373 232.968 17.52 232.414 17.52C231.976 17.52 231.528 17.5893 231.07 17.728C230.611 17.856 230.147 18.0587 229.678 18.336L229.102 16.976C229.379 16.784 229.704 16.6187 230.078 16.48C230.462 16.3307 230.862 16.2187 231.278 16.144C231.704 16.0587 232.104 16.016 232.478 16.016C233.619 16.016 234.467 16.2827 235.022 16.816C235.576 17.3387 235.854 18.1547 235.854 19.264V24H233.982V22.752C233.8 23.1893 233.512 23.536 233.118 23.792C232.723 24.0373 232.254 24.16 231.71 24.16ZM232.126 22.784C232.648 22.784 233.08 22.6027 233.422 22.24C233.774 21.8773 233.95 21.4187 233.95 20.864V20.512H233.406C232.403 20.512 231.704 20.592 231.31 20.752C230.926 20.9013 230.734 21.1787 230.734 21.584C230.734 21.936 230.856 22.224 231.102 22.448C231.347 22.672 231.688 22.784 232.126 22.784ZM241.468 24.16C239.398 24.16 238.364 23.136 238.364 21.088V17.68H236.86V16.176H238.364V13.84H240.364V16.176H242.732V17.68H240.364V20.976C240.364 21.488 240.476 21.872 240.7 22.128C240.924 22.384 241.286 22.512 241.788 22.512C241.937 22.512 242.092 22.496 242.252 22.464C242.412 22.4213 242.577 22.3787 242.748 22.336L243.052 23.808C242.86 23.9147 242.614 24 242.316 24.064C242.028 24.128 241.745 24.16 241.468 24.16Z" fill="black"/>
<path d="M260.12 24.16C259.235 24.16 258.413 24.048 257.656 23.824C256.899 23.5893 256.259 23.2747 255.736 22.88L256.36 21.264C256.883 21.6373 257.453 21.9253 258.072 22.128C258.701 22.3307 259.384 22.432 260.12 22.432C260.963 22.432 261.576 22.2933 261.96 22.016C262.344 21.728 262.536 21.36 262.536 20.912C262.536 20.5387 262.397 20.2453 262.12 20.032C261.853 19.8187 261.389 19.6427 260.728 19.504L258.968 19.136C256.963 18.7093 255.96 17.68 255.96 16.048C255.96 15.344 256.147 14.7307 256.52 14.208C256.893 13.6853 257.411 13.28 258.072 12.992C258.733 12.704 259.496 12.56 260.36 12.56C261.128 12.56 261.848 12.6773 262.52 12.912C263.192 13.136 263.752 13.456 264.2 13.872L263.576 15.408C262.691 14.6613 261.613 14.288 260.344 14.288C259.608 14.288 259.032 14.4427 258.616 14.752C258.2 15.0613 257.992 15.4667 257.992 15.968C257.992 16.352 258.12 16.6613 258.376 16.896C258.632 17.12 259.069 17.296 259.688 17.424L261.432 17.792C262.488 18.016 263.272 18.368 263.784 18.848C264.307 19.328 264.568 19.968 264.568 20.768C264.568 21.44 264.387 22.032 264.024 22.544C263.661 23.056 263.144 23.456 262.472 23.744C261.811 24.0213 261.027 24.16 260.12 24.16ZM268.966 24.16C267.046 24.16 266.086 23.0827 266.086 20.928V16.176H268.086V20.96C268.086 21.5147 268.198 21.9253 268.422 22.192C268.646 22.4587 269.003 22.592 269.494 22.592C270.027 22.592 270.464 22.4107 270.806 22.048C271.147 21.6747 271.318 21.184 271.318 20.576V16.176H273.318V24H271.366V22.832C270.843 23.7173 270.043 24.16 268.966 24.16ZM275.399 24V16.176H277.351V17.392C277.618 16.944 277.975 16.6027 278.423 16.368C278.882 16.1333 279.394 16.016 279.959 16.016C281.805 16.016 282.727 17.088 282.727 19.232V24H280.727V19.328C280.727 18.72 280.61 18.2773 280.375 18C280.151 17.7227 279.799 17.584 279.319 17.584C278.733 17.584 278.263 17.7707 277.911 18.144C277.57 18.5067 277.399 18.992 277.399 19.6V24H275.399Z" fill="black"/>
</svg>
